<?xml version="1.0" encoding="UTF-8" standalone="no"?>
<!-- Created with Inkscape (http://www.inkscape.org/) -->

<svg
   version="1.1"
   id="svg784"
   xml:space="preserve"
   width="1066.6667"
   height="1066.6667"
   viewBox="0 0 1066.6667 1066.6667"
   sodipodi:docname="comet-pubicdomainvectors.org.svg"
   inkscape:version="1.1.2 (b8e25be833, 2022-02-05)"
   xmlns:inkscape="http://www.inkscape.org/namespaces/inkscape"
   xmlns:sodipodi="http://sodipodi.sourceforge.net/DTD/sodipodi-0.dtd"
   xmlns="http://www.w3.org/2000/svg"
   xmlns:svg="http://www.w3.org/2000/svg"><defs
     id="defs788"><clipPath
       clipPathUnits="userSpaceOnUse"
       id="clipPath798"><path
         d="M 0,800 H 800 V 0 H 0 Z"
         id="path796" /></clipPath></defs><sodipodi:namedview
     id="namedview786"
     pagecolor="#ffffff"
     bordercolor="#666666"
     borderopacity="1.0"
     inkscape:pageshadow="2"
     inkscape:pageopacity="0.0"
     inkscape:pagecheckerboard="0"
     showgrid="false"
     inkscape:zoom="0.77906244"
     inkscape:cx="533.33337"
     inkscape:cy="533.33337"
     inkscape:window-width="1920"
     inkscape:window-height="1018"
     inkscape:window-x="-8"
     inkscape:window-y="-8"
     inkscape:window-maximized="1"
     inkscape:current-layer="g790" /><g
     id="g790"
     inkscape:groupmode="layer"
     inkscape:label="comet-pubicdomainvectors.org"
     transform="matrix(1.3333333,0,0,-1.3333333,0,1066.6667)"><g
       id="g792"><g
         id="g794"
         clip-path="url(#clipPath798)"><path
           d="M 0.938,-0.516 H 800.132 V 798.68 H 0.938 Z"
           style="fill:#333333;fill-opacity:1;fill-rule:evenodd;stroke:none"
           id="path800" /><path
           d="M 85.622,304.09 C -12.169,119.027 159.715,24.226 284.613,112.388 c 96.044,67.795 163.801,149.663 245.7,224.497 -28.8,3.967 -57.129,4.676 -84.521,-1.082 118.252,44.43 149.147,139.477 223.718,209.215 -33.421,-13.372 -73.488,-25.847 -107.914,-25.872 100.911,54.943 109.285,144.867 163.926,217.302 -38.416,-13.167 -56.233,-36.841 -93.134,-57.231 4.959,7.54 8.451,15.494 10.502,23.854 -70.078,-60.09 -153.285,-68.115 -224.775,-137.716 11.257,12.907 20.177,29.177 25.164,51.103 -82.3,-69.927 -182.901,-106.681 -246.899,-209.782 4.422,15.351 6.723,31.859 5.759,50.153 C 168.478,400.153 124.673,377.993 85.622,304.09"
           style="fill:#e04816;fill-opacity:1;fill-rule:evenodd;stroke:none"
           id="path802" /><path
           d="m 557.395,458.206 c -20.561,-6.221 -42.071,-10.651 -62.124,-10.666 l -35.237,-0.025 30.946,16.849 c 25.172,13.705 45.65,31.206 62.902,54.074 24.355,32.286 38.824,70.569 59.079,105.362 -2.008,-1.314 -4.012,-2.682 -6.023,-4.1 -27.737,-19.578 -47.14,-32 -77.184,-48.6 l 10.716,16.291 c -15.192,-9.509 -31.137,-17.672 -47.707,-25.597 -20.156,-9.639 -40.543,-18.761 -60.041,-29.714 -42.044,-23.619 -45.351,-41.154 -89.36,-57.339 8.652,13.314 20.316,26.904 27.948,39.279 C 355.007,501.958 338.131,490.693 321.225,479.435 266.967,443.302 218.682,410.119 183.484,353.416 l -34.143,-55.002 17.927,62.206 c 0.913,3.172 1.698,6.349 2.356,9.54 -4.92,-6.173 -10.096,-12.172 -15.5,-18.154 -11.378,-12.6 -23.134,-24.76 -33.929,-37.893 -12.849,-15.624 -23.803,-31.976 -33.26,-49.873 -15.387,-29.118 -26.95,-63.412 -23.649,-96.768 2.381,-24.069 12.608,-45.909 30.946,-61.902 19.372,-16.891 44.795,-24.819 70.257,-24.947 29.921,-0.151 59.073,10.315 83.383,27.475 53.418,37.707 98.78,82.49 144.829,128.535 18.059,18.057 36.126,36.107 54.695,53.639 -28.208,1.998 -63.322,-4.785 -93.306,-6.437 38.823,23.833 82.158,38.395 115.974,70.019 20.951,19.59 38.33,42.138 55.738,64.815 10.321,13.443 20.612,26.782 31.593,39.537"
           style="fill:#ff8822;fill-opacity:1;fill-rule:evenodd;stroke:none"
           id="path804" /><path
           d="m 459.554,374.16 c -15.475,-4.681 -31.662,-8.014 -46.755,-8.025 l -26.521,-0.021 23.291,12.683 c 18.945,10.314 34.357,23.485 47.34,40.696 18.331,24.298 29.22,53.111 44.464,79.296 -1.511,-0.989 -3.019,-2.018 -4.533,-3.087 -20.873,-14.732 -35.479,-24.082 -58.091,-36.576 l 8.065,12.261 c -11.432,-7.156 -23.432,-13.3 -35.903,-19.264 -15.17,-7.254 -30.513,-14.121 -45.186,-22.363 -31.643,-17.776 -34.134,-30.974 -67.256,-43.156 6.515,10.021 15.29,20.25 21.033,29.564 -12.266,-9.077 -24.967,-17.556 -37.691,-26.031 C 240.977,362.945 204.637,337.97 178.145,295.294 L 152.449,253.9 165.94,300.717 c 0.689,2.386 1.279,4.779 1.774,7.18 -3.702,-4.643 -7.6,-9.16 -11.665,-13.662 -8.565,-9.483 -17.409,-18.633 -25.537,-28.518 -9.667,-11.758 -17.914,-24.068 -25.031,-37.535 -11.58,-21.914 -20.282,-47.726 -17.798,-72.829 1.793,-18.115 9.489,-34.554 23.289,-46.588 14.581,-12.714 33.714,-18.679 52.878,-18.776 22.517,-0.115 44.458,7.763 62.754,20.678 40.203,28.379 74.344,62.083 109,96.735 13.591,13.592 27.188,27.176 41.163,40.37 -21.229,1.503 -47.656,-3.599 -70.223,-4.843 29.218,17.936 61.833,28.896 87.284,52.694 15.768,14.745 28.847,31.716 41.949,48.782 7.767,10.119 15.511,20.155 23.777,29.755"
           style="fill:#ffaa11;fill-opacity:1;fill-rule:evenodd;stroke:none"
           id="path806" /><path
           d="m 371.779,336.346 c -9.593,-2.903 -19.629,-4.971 -28.987,-4.977 l -16.441,-0.013 14.44,7.864 c 11.745,6.395 21.3,14.559 29.351,25.23 11.362,15.063 18.114,32.928 27.565,49.161 -0.937,-0.612 -1.872,-1.25 -2.811,-1.913 -12.941,-9.135 -21.994,-14.931 -36.013,-22.677 l 5.001,7.602 c -7.091,-4.437 -14.532,-8.245 -22.263,-11.943 -9.404,-4.497 -18.915,-8.753 -28.014,-13.866 -19.617,-11.019 -21.161,-19.202 -41.696,-26.752 4.039,6.212 9.48,12.553 13.04,18.328 -7.604,-5.629 -15.479,-10.885 -23.368,-16.139 -25.318,-16.859 -47.847,-32.342 -64.269,-58.799 l -15.931,-25.666 8.365,29.027 c 0.425,1.479 0.792,2.961 1.1,4.451 -2.297,-2.879 -4.711,-5.678 -7.234,-8.47 -5.308,-5.88 -10.793,-11.554 -15.832,-17.68 -5.993,-7.292 -11.105,-14.921 -15.518,-23.271 -7.179,-13.587 -12.573,-29.589 -11.034,-45.153 1.112,-11.23 5.884,-21.42 14.441,-28.883 9.037,-7.882 20.899,-11.58 32.78,-11.639 13.96,-0.072 27.562,4.811 38.905,12.818 24.927,17.595 46.09,38.491 67.576,59.974 8.428,8.427 16.859,16.849 25.524,25.028 -13.163,0.932 -29.547,-2.231 -43.538,-3.003 18.114,11.119 38.334,17.914 54.114,32.671 9.774,9.139 17.885,19.662 26.008,30.242 4.813,6.272 9.615,12.496 14.739,18.448"
           style="fill:#ffcc00;fill-opacity:1;fill-rule:evenodd;stroke:none"
           id="path808" /><path
           d="m 138.405,327.626 c 14.577,0.753 27.528,4.848 40.377,12.703 l 0.518,0.317 c 3.842,2.353 8.55,1.994 11.994,-0.911 l 0.004,-0.004 c 2.783,-2.343 6.288,-3.04 9.756,-1.931 l 8.114,2.59 c 9.425,3.009 19.02,0.878 26.284,-5.84 l 7.466,-6.905 c 9.308,-8.608 18.82,-14.304 30.805,-18.443 l 3.187,-1.102 c 7.729,-2.668 12.834,-9.291 13.448,-17.446 0.411,-5.446 2.562,-10.659 6.359,-15.131 l 9.642,-11.36 c 5.142,-6.059 7.216,-13.272 6.077,-21.138 -1.878,-12.947 -0.821,-25.117 3.263,-38.064 l 0.056,-0.182 c 2.691,-8.546 1.025,-17.407 -4.091,-24.124 -6.273,-8.239 -9.831,-16.685 -11.348,-26.93 -1.07,-7.251 -4.991,-13.496 -11.295,-17.826 l -21.817,-14.992 c -1.917,-1.318 -3.51,-2.502 -5.321,-3.963 L 233.735,94.277 c -9.137,-7.358 -21.417,-8 -31.271,-1.637 l -2.333,1.506 c -6.564,4.242 -13.83,5.387 -21.383,3.377 l -11.926,-3.176 c -10.732,-2.859 -21.535,0.868 -28.222,9.735 l -4.821,6.395 c -5.916,7.843 -13.267,12.875 -22.72,15.547 -9.481,2.684 -16.793,10.405 -18.793,20.526 l -0.646,3.266 c -2.37,11.991 -6.471,21.835 -13.308,31.964 l -9.687,14.344 c -6.555,9.709 -6.178,21.976 0.963,31.262 l 18.095,23.527 c 4.28,5.566 6.08,11.802 5.426,18.795 l -0.145,1.551 c -0.777,8.273 1.937,15.713 7.859,21.544 6.281,6.181 11.287,12.901 15.281,20.526 4.508,8.61 12.597,13.796 22.301,14.297"
           style="fill:#996633;fill-opacity:1;fill-rule:evenodd;stroke:none"
           id="path810" /><path
           d="m 297.715,145.606 c -1.966,-3.798 -4.897,-7.099 -8.694,-9.707 l -21.817,-14.992 c -1.917,-1.318 -3.51,-2.502 -5.321,-3.963 L 233.735,94.277 c -9.137,-7.358 -21.417,-8 -31.271,-1.637 l -2.333,1.506 c -6.564,4.242 -13.83,5.387 -21.383,3.377 l -11.926,-3.176 c -10.732,-2.859 -21.535,0.868 -28.222,9.735 l -4.821,6.395 c -5.916,7.843 -13.267,12.875 -22.72,15.547 -9.481,2.684 -16.793,10.405 -18.793,20.526 l -0.646,3.266 c -0.674,3.408 -1.487,6.643 -2.462,9.76 7.925,-4.046 17.288,-9.678 26.212,-20.443 9.714,-11.725 19.01,5.175 34.175,-16.487 9.529,-13.613 36.111,-2.399 45.911,-8.596 18.732,-11.847 32.086,5.934 45.914,2.113 14.55,-4.021 24,15.145 29.698,20.699 6.935,6.761 17.443,7.727 26.647,8.744"
           style="fill:#805224;fill-opacity:1;fill-rule:evenodd;stroke:none"
           id="path812" /><path
           d="m 138.405,327.626 c 14.577,0.753 27.528,4.848 40.377,12.703 l 0.518,0.317 c 3.842,2.353 8.55,1.994 11.994,-0.911 l 0.004,-0.004 c 2.783,-2.343 6.288,-3.04 9.756,-1.931 l 8.114,2.59 c 9.425,3.009 19.02,0.878 26.284,-5.84 l 7.466,-6.905 c 9.308,-8.608 18.82,-14.304 30.805,-18.443 l 3.187,-1.102 c 7.729,-2.668 12.834,-9.291 13.448,-17.446 0.411,-5.446 2.562,-10.659 6.359,-15.131 l 9.642,-11.36 c 2.193,-2.585 3.83,-5.381 4.895,-8.348 -2.224,-4.314 -3.7,-8.81 -4.451,-13.557 -1.159,-7.344 -5.125,-13.195 -11.514,-16.995 -3.205,-1.908 -5.819,-4.513 -7.927,-7.886 -10.894,-17.434 -31.527,-25.957 -51.872,-20.938 -8.054,1.986 -15.889,0.006 -22.032,-5.571 l -0.404,-0.367 c -6.76,-6.139 -15.706,-7.937 -24.312,-4.887 -11.242,3.982 -22.499,3.816 -33.185,-0.452 -9.502,-3.794 -19.829,-1.442 -26.752,6.088 -7.563,8.229 -17.451,13.234 -29.086,14.652 l -2.872,0.35 c -12.529,1.528 -22.615,8.756 -28.044,20.061 0.252,0.36 0.512,0.717 0.785,1.073 l 18.095,23.527 c 4.28,5.566 6.08,11.802 5.426,18.795 l -0.145,1.551 c -0.777,8.273 1.937,15.713 7.859,21.544 6.281,6.181 11.287,12.901 15.281,20.526 4.508,8.61 12.597,13.796 22.301,14.297"
           style="fill:#b37f4b;fill-opacity:1;fill-rule:evenodd;stroke:none"
           id="path814" /><path
           d="m 269.525,154.866 c 0.768,-1.176 1.467,-5.91 5.406,-3.555 10.111,6.042 -1.953,5.53 -5.05,6.389 -1.641,0.456 -0.36,-2.83 -0.356,-2.834 m 5.12,16.49 c 4.037,-1.319 1.222,-6.714 5.15,-2.747 1.726,1.742 0.851,10.485 -1.047,12.067 -3.498,2.919 -10.028,1.276 -14.9,2.216 -2.624,0.504 -4.884,-0.203 -1.019,-2.919 2.56,-1.8 -1.241,-4.347 11.816,-8.617 m -74.877,-14.022 c 3.12,-6.162 5.405,-4.458 9.642,-9.538 1.067,-1.282 4.459,-2.619 3.668,2.556 -1.393,9.141 -2.599,14.125 -12.679,15.148 -2.034,-2.395 -1.886,-5.678 -0.631,-8.166 m 48.185,-21.465 c -5.906,-1.372 1.061,-10.013 5.203,-3.985 0.684,0.994 2.24,3.672 0.537,4.05 -4.15,0.924 -1.696,0.875 -5.74,-0.065 m -47.368,-16.412 c 1.662,-7.026 7.052,-2.63 12.833,-2.916 2.207,-0.109 5.873,4.566 -1.16,5.226 -5.381,0.508 -8.308,3.536 -11.703,-1.627 -0.186,-0.279 -0.08,-0.224 0.03,-0.683 m -39.029,6.644 c -0.024,0.123 -0.149,0.162 -0.092,0.331 1.066,3.26 3.596,0.711 4.562,-0.2 0.962,-0.907 2.032,-4.676 0.406,-4.852 -4.156,-0.448 -4.329,2.103 -4.876,4.721 m 10.408,7.831 c 2.761,-2.333 16.974,-10.336 20.423,-4.464 2.102,3.585 -3.271,7.813 -7.192,8.313 -3.81,0.486 -18.423,0.538 -13.231,-3.849 m -56.681,25.109 c 0.945,3.532 4.666,0.648 6.394,-1.062 1.391,-1.378 2.556,-3.85 1.705,-5.925 -2.027,-4.95 -2.325,-6.518 -5.785,-2.452 -1.79,2.103 -3.075,6.599 -2.314,9.439 m 4.605,22.243 c -3.925,12.939 -35.12,19.518 -33.169,6.051 2.514,-17.349 3.481,-9.605 6.802,-20.564 1.547,-5.092 12.278,-5.728 15.611,-0.099 2.373,4.008 11.43,12.398 10.756,14.612 m 54.26,-28.064 c -0.363,1.198 1.004,16.163 3.426,17.524 8.113,4.563 -10.038,9.54 -12.93,-0.335 -1.32,-4.501 -4.977,-13.99 -1.709,-18.551 2.367,-3.31 12.294,-2.21 11.213,1.362 m 45.975,23.893 c 2.202,-15.202 4.39,-13.911 8.294,-26.737 0.732,-2.406 6.192,-13.021 10.699,-9.349 13.917,11.328 -24.529,74.286 -18.993,36.086 m 80.008,7.063 c 3.046,0.33 -0.512,18.008 -3.105,21.585 -4.503,6.213 -4.739,12.357 -7.638,0.933 -4.376,-9.301 7.177,-22.904 10.743,-22.518"
           style="fill:#805224;fill-opacity:1;fill-rule:evenodd;stroke:none"
           id="path816" /><path
           d="m 145.437,248.61 c -7.877,3.521 -11.516,3.477 -19.865,1.77 -4.455,-0.909 -2.12,-14.333 2.199,-18.967 5.847,-6.277 -4.396,-13.18 14.363,-9.485 4.137,0.812 9.891,23.737 3.303,26.682 m -30.011,30.706 -1.38,4.171 c -2.51,7.581 -1.002,15.57 3.906,20.697 l 7.2,7.523 c 3.66,3.824 8.226,5.205 13.161,3.98 l 2.583,-0.641 c 6.189,-1.537 12.005,1.129 15.512,7.106 l 0.244,0.418 c 3.662,6.249 9.89,8.881 16.301,6.888 l 10.512,-3.27 c 3.42,-1.063 6.557,-0.846 9.737,0.676 l 9.567,4.583 c 4.777,2.287 9.844,1.679 14.397,-1.73 l 7.254,-5.432 c 2.555,-1.909 5.082,-2.858 8.026,-3.01 l 2,-0.103 c 6.463,-0.333 12.025,-4.975 14.634,-12.212 l 0.991,-2.749 c 3.089,-8.561 0.837,-17.995 -5.442,-22.809 l -0.172,-0.131 c -3.953,-3.032 -8.453,-3.684 -13.104,-1.902 l -7.116,2.729 c -5.924,2.27 -11.832,0.527 -15.903,-4.689 l -11.175,-14.322 c -4.001,-5.129 -4.695,-12.55 -1.777,-19.04 3.46,-7.706 2.348,-16.797 -2.842,-22.493 l -0.866,-0.951 c -4.337,-4.757 -10.245,-5.999 -15.985,-3.36 l -5.795,2.666 c -7.109,3.267 -11.092,12.538 -9.03,21.013 1.53,6.278 0.325,12.716 -3.358,17.931 l -0.99,1.404 c -4.766,6.754 -12.268,9.032 -18.746,5.693 l -0.454,-0.236 c -5.241,-2.7 -11.003,-1.821 -15.813,2.414 l -0.333,0.291 c -2.692,2.371 -4.522,5.207 -5.744,8.897 m 119.449,-15.092 c -1.96,0.971 -17.309,8.28 -18.182,5.06 -2.575,-9.49 -8.296,-19.929 -1.289,-28.109 3.532,-4.126 4.785,-16.472 16.095,-19.877 6.503,-1.956 16.244,-9.576 20.54,-0.249 4.671,10.139 8.149,2.99 10.878,21.607 1.602,10.919 18.833,7.56 17.264,18.395 -1.146,7.908 -4.687,7.144 -5.188,8.939 -30.553,13.325 -27.618,-11.963 -40.118,-5.766"
           style="fill:#d19e6b;fill-opacity:1;fill-rule:evenodd;stroke:none"
           id="path818" /><path
           d="m 135.207,297.56 c -4.374,13.169 18.645,7.475 30.7,16.221 5.8,4.21 24.109,-3.583 26.442,-9.392 4.171,-10.386 -3.118,-11.647 -12.427,-18.785 -18.783,-14.399 -32.355,-3.877 -38.526,-4.875 -6.64,-1.075 -7.097,-2.085 -8.734,7.827 -0.6,3.637 3.278,6.788 2.545,9.004"
           style="fill:#e3b78b;fill-opacity:1;fill-rule:evenodd;stroke:none"
           id="path820" /><path
           d="m 138.848,261.529 c 3.24,0.138 11.631,-10.551 9.752,2.422 -0.456,3.139 -1.558,1.927 -6.678,1.184 -2.201,-0.318 -5.294,-0.025 -3.398,-3.252 0.052,-0.083 0.199,-0.358 0.324,-0.354 M 98.604,246.697 c -1.721,-5.598 7.69,-8.251 8.28,-6.019 2.564,9.689 9.724,10.666 -6.284,11.368 -5.578,0.243 -2.6,-4.676 -2.195,-5.005 z m 18.253,-29.718 c -0.529,11.212 -16.034,10.505 -24.424,11.012 -6.682,0.403 -2.787,-1.921 -4.856,-5.258 -5.04,-8.124 4.85,-8.852 11.603,-10.442 2.547,-0.6 11.508,-1.456 13.199,1.464 1.126,1.945 4.549,1.764 4.478,3.224 m 53.937,-17.058 c -1.382,9.54 -0.024,11.34 -12.414,14.454 -1.666,0.417 -8.166,2.063 -8.071,-1.033 0.242,-8.003 0.73,-5.868 -1.579,-12.035 -0.699,-1.869 -0.527,-6.294 2.361,-7.036 2.424,-0.62 19.287,-2.17 19.384,2.388 0.018,0.847 0.33,3.179 0.319,3.262 m 47.207,3.749 c -1.603,6.256 -1.522,4.393 -5.452,9.192 -3.222,3.933 -1.39,5.088 -9.004,3.785 -2.455,-0.419 -10.578,-19.88 10.492,-17.467 0.454,0.052 3.982,4.422 3.964,4.49 m 39.852,101.487 c 1.595,-6.27 3.579,-8.273 10.415,-7.159 2.335,0.38 -0.459,7.827 -7.307,8.948 -1.855,0.305 -1.759,-0.187 -2.967,-1.38 z m 9.691,-17.559 c -7.355,-2.741 -11.106,-8.91 -3.127,-8.412 1.244,0.078 14.008,-0.75 14.263,0.805 0.949,5.829 -2.036,7.449 -7.196,8.225 -0.531,0.079 -3.502,-0.454 -3.94,-0.618 m 22.914,-38.662 c -3.176,0.177 -21.713,-4.279 -20.887,-9.007 0.741,-4.228 2.114,-3.201 2.96,-9.039 0.369,-2.549 11.936,-0.685 15.716,2.404 4.961,4.048 3.592,2.252 6.428,7.275 2.34,4.153 -0.39,3.523 -3.237,7.627 -0.026,0.036 -0.902,0.736 -0.98,0.74"
           style="fill:#996633;fill-opacity:1;fill-rule:evenodd;stroke:none"
           id="path822" /></g></g></g></svg>
