<?xml version="1.0" encoding="UTF-8" standalone="no"?>
<!-- Created with Inkscape (http://www.inkscape.org/) -->

<svg
   xmlns:dc="http://purl.org/dc/elements/1.1/"
   xmlns:cc="http://creativecommons.org/ns#"
   xmlns:rdf="http://www.w3.org/1999/02/22-rdf-syntax-ns#"
   xmlns:svg="http://www.w3.org/2000/svg"
   xmlns="http://www.w3.org/2000/svg"
   xmlns:sodipodi="http://sodipodi.sourceforge.net/DTD/sodipodi-0.dtd"
   xmlns:inkscape="http://www.inkscape.org/namespaces/inkscape"
   version="1.1"
   id="svg49083"
   xml:space="preserve"
   width="800"
   height="800"
   viewBox="0 0 800 800"
   sodipodi:docname="clownfish-clip-art-publicdomainvectors.org.svg"
   inkscape:version="0.92.4 (5da689c313, 2019-01-14)"><metadata
     id="metadata49089"><rdf:RDF><cc:Work
         rdf:about=""><dc:format>image/svg+xml</dc:format><dc:type
           rdf:resource="http://purl.org/dc/dcmitype/StillImage" /><dc:title></dc:title></cc:Work></rdf:RDF></metadata><defs
     id="defs49087"><clipPath
       clipPathUnits="userSpaceOnUse"
       id="clipPath49099"><path
         d="M 0,600 H 600 V 0 H 0 Z"
         id="path49097"
         inkscape:connector-curvature="0" /></clipPath></defs><sodipodi:namedview
     pagecolor="#ffffff"
     bordercolor="#666666"
     borderopacity="1"
     objecttolerance="10"
     gridtolerance="10"
     guidetolerance="10"
     inkscape:pageopacity="0"
     inkscape:pageshadow="2"
     inkscape:window-width="1920"
     inkscape:window-height="1018"
     id="namedview49085"
     showgrid="false"
     inkscape:zoom="1.0013867"
     inkscape:cx="400"
     inkscape:cy="400"
     inkscape:window-x="-8"
     inkscape:window-y="-8"
     inkscape:window-maximized="1"
     inkscape:current-layer="g49091" /><g
     id="g49091"
     inkscape:groupmode="layer"
     inkscape:label="clownfish-clip-art-publicdomainvectors.org"
     transform="matrix(1.3333333,0,0,-1.3333333,0,800)"><g
       id="g49093"><g
         id="g49095"
         clip-path="url(#clipPath49099)"><path
           d="m 322.476,133.591 c 120.874,0 219.458,15.928 219.458,35.459 0,19.529 -98.584,35.457 -219.458,35.457 -120.872,0 -219.457,-15.928 -219.457,-35.457 0,-19.531 98.585,-35.459 219.457,-35.459"
           style="fill:#e4ebf8;fill-opacity:1;fill-rule:evenodd;stroke:none"
           id="path49101"
           inkscape:connector-curvature="0" /><path
           d="m 249.456,278.036 c 16.286,0.229 20.751,21.524 17.928,32.644 -4.367,17.2 -31.423,25.173 -60.432,17.808 -29.009,-7.365 -44.407,-24.351 -40.039,-41.55 3.333,-13.13 15.312,-23.81 35.865,-23.468 23.475,0.392 31.535,14.355 46.678,14.566"
           style="fill:#1c1a19;fill-opacity:1;fill-rule:evenodd;stroke:none"
           id="path49103"
           inkscape:connector-curvature="0" /><path
           d="m 222.03,272.747 c 7.845,1.578 11.306,6.578 24.134,6.908 13.986,0.362 18.141,18.709 15.493,29.241 -3.919,15.58 -26.211,24.086 -49.788,18.995 -23.581,-5.09 -39.519,-21.848 -35.599,-37.431 3.918,-15.58 14.485,-24.006 45.76,-17.713"
           style="fill:#d23e21;fill-opacity:1;fill-rule:evenodd;stroke:none"
           id="path49105"
           inkscape:connector-curvature="0" /><path
           d="m 221.165,280.64 c 5.574,1.119 8.033,4.673 17.148,4.908 9.936,0.258 12.89,13.293 11.007,20.774 -2.784,11.072 -18.622,17.114 -35.374,13.499 -16.754,-3.619 -28.079,-15.525 -25.293,-26.595 2.783,-11.073 10.291,-17.059 32.512,-12.586"
           style="fill:#be3022;fill-opacity:1;fill-rule:evenodd;stroke:none"
           id="path49107"
           inkscape:connector-curvature="0" /><path
           d="m 275.807,495.852 c 21.311,-0.3 27.156,-28.166 23.46,-42.722 -5.714,-22.507 -41.123,-32.94 -79.083,-23.301 -37.961,9.639 -58.113,31.865 -52.398,54.372 4.361,17.183 20.04,31.161 46.937,30.713 30.718,-0.513 41.267,-18.785 61.084,-19.062"
           style="fill:#2f2d2d;fill-opacity:1;fill-rule:evenodd;stroke:none"
           id="path49109"
           inkscape:connector-curvature="0" /><path
           d="m 239.917,502.774 c 10.263,-2.065 14.792,-8.609 31.58,-9.043 18.303,-0.471 23.742,-24.482 20.276,-38.263 -5.128,-20.39 -34.3,-31.521 -65.155,-24.859 -30.857,6.662 -51.715,28.592 -46.588,48.982 5.129,20.391 18.959,31.417 59.887,23.183"
           style="fill:#d73722;fill-opacity:1;fill-rule:evenodd;stroke:none"
           id="path49111"
           inkscape:connector-curvature="0" /><path
           d="m 370.419,562.816 c 37.578,0 71.879,-30.463 76.611,-68.042 4.735,-37.578 -21.892,-68.041 -59.47,-68.041 -37.58,0 -71.878,30.463 -76.611,68.041 -4.734,37.579 21.892,68.042 59.47,68.042"
           style="fill:#2f2d2d;fill-opacity:1;fill-rule:evenodd;stroke:none"
           id="path49113"
           inkscape:connector-curvature="0" /><path
           d="m 238.784,492.446 c 7.294,-1.467 10.513,-6.117 22.439,-6.425 13.004,-0.335 16.868,-17.395 14.406,-27.186 -3.644,-14.488 -24.37,-22.396 -46.294,-17.663 -21.924,4.734 -36.742,20.315 -33.099,34.803 3.644,14.487 13.471,22.321 42.548,16.471"
           style="fill:#be3022;fill-opacity:1;fill-rule:evenodd;stroke:none"
           id="path49115"
           inkscape:connector-curvature="0" /><path
           d="m 370.617,551.912 c 37.578,0 71.879,-30.463 76.612,-68.041 4.734,-37.579 -21.892,-68.042 -59.47,-68.042 -37.578,0 -71.878,30.463 -76.613,68.042 -4.733,37.578 21.892,68.041 59.471,68.041"
           style="fill:#d73722;fill-opacity:1;fill-rule:evenodd;stroke:none"
           id="path49117"
           inkscape:connector-curvature="0" /><path
           d="m 360.803,514.626 c 99.176,0 170.019,-60.878 211.889,-133.4 C 531.207,309.37 449.698,247.823 360.803,247.823 c -73.842,0 -131.696,35.268 -165.303,77.161 -10.417,12.985 -29.118,15.013 -42.075,4.559 -22.962,-18.524 -49.11,-34.567 -71.334,-34.567 -30.75,0 -53.937,35.156 -53.937,82.79 0,47.635 23.187,89.71 53.937,89.71 22.352,0 48.669,-16.226 71.725,-34.885 12.636,-10.224 31.187,-8.453 41.658,3.978 35.62,42.286 99.562,78.057 165.329,78.057"
           style="fill:#f14825;fill-opacity:1;fill-rule:evenodd;stroke:none"
           id="path49119"
           inkscape:connector-curvature="0" /><path
           d="M 572.692,381.226 C 531.207,309.37 449.698,247.823 360.803,247.823 c -73.842,0 -131.696,35.268 -165.303,77.161 -10.417,12.985 -29.118,15.013 -42.075,4.559 -22.962,-18.524 -49.11,-34.567 -71.334,-34.567 -30.75,0 -53.937,35.156 -53.937,82.79 0,1.158 0.018,2.31 0.045,3.46 z"
           style="fill:#e6421f;fill-opacity:1;fill-rule:evenodd;stroke:none"
           id="path49121"
           inkscape:connector-curvature="0" /><path
           d="m 554.101,397.092 c -44.698,59.144 -116.218,105.42 -193.298,105.42 -73.842,0 -131.696,-35.266 -165.303,-77.159 -10.417,-12.985 -29.118,-15.012 -42.075,-4.56 -44.187,35.648 -75.868,27.048 -89.654,-18.048 9.535,32.191 56.448,40.82 92.9,-7.814 7.582,-10.117 26.281,-4.809 39.609,10.423 91.893,105.015 231.966,101.664 357.821,-8.262"
           style="fill:#f68267;fill-opacity:1;fill-rule:evenodd;stroke:none"
           id="path49123"
           inkscape:connector-curvature="0" /><path
           d="M 554.101,353.245 C 509.403,294.101 437.883,247.823 360.803,247.823 c -73.842,0 -131.696,35.268 -165.303,77.161 -10.417,12.985 -29.118,15.013 -42.075,4.559 -22.962,-18.524 -49.11,-34.567 -71.334,-34.567 -18.765,0 -34.713,13.093 -44.294,34.123 l 15.432,24.722 c 9.534,-32.191 66.99,-47.05 103.442,1.585 7.582,10.116 24.549,14.573 39.999,1.496 104.83,-88.723 228.7,-84.356 357.431,-3.657"
           style="fill:#ee5d31;fill-opacity:1;fill-rule:evenodd;stroke:none"
           id="path49125"
           inkscape:connector-curvature="0" /><path
           d="m 124.803,309.377 c -14.626,-8.624 -29.375,-14.401 -42.712,-14.401 -30.75,0 -53.937,35.156 -53.937,82.79 0,47.635 23.187,89.71 53.937,89.71 14.494,0 30.657,-6.825 46.516,-16.71 -65.77,16.627 -75.598,-29.961 -76.568,-66.072 -1.007,-37.518 3.952,-103.07 72.764,-75.317"
           style="fill:#2f2d2d;fill-opacity:1;fill-rule:evenodd;stroke:none"
           id="path49127"
           inkscape:connector-curvature="0" /><path
           d="m 193.978,326.741 c -10.566,11.312 -27.961,12.742 -40.296,3.005 5.485,34.079 5.06,70.129 -1.4,104.079 0.513,-0.41 1.025,-0.821 1.534,-1.234 11.788,-9.538 28.719,-8.635 39.441,1.62 5.036,-35.411 5.253,-72.082 0.721,-107.47"
           style="fill:#e8e8e7;fill-opacity:1;fill-rule:evenodd;stroke:none"
           id="path49129"
           inkscape:connector-curvature="0" /><path
           d="m 157.036,394.465 c -0.462,8.535 -1.282,17.035 -2.458,25.444 12.497,-9.15 29.714,-7.289 39.969,4.313 0.727,-6.262 1.303,-12.557 1.733,-18.868 -13.119,-14.993 -31.439,-20.37 -39.244,-10.889"
           style="fill:#ffffff;fill-opacity:1;fill-rule:evenodd;stroke:none"
           id="path49131"
           inkscape:connector-curvature="0" /><path
           d="m 193.978,326.741 c -10.566,11.312 -27.961,12.742 -40.296,3.005 2.711,16.842 3.978,34.166 3.786,51.48 H 197.2 c 0.153,-18.27 -0.923,-36.543 -3.222,-54.485"
           style="fill:#cdcccb;fill-opacity:1;fill-rule:evenodd;stroke:none"
           id="path49133"
           inkscape:connector-curvature="0" /><path
           d="m 193.978,326.741 c -0.164,0.176 -0.331,0.35 -0.499,0.522 l -0.005,0.005 c -0.086,0.088 -0.173,0.173 -0.261,0.26 l -0.268,0.266 c -0.091,0.087 -0.181,0.173 -0.273,0.26 l -0.255,0.241 -0.273,0.248 -0.283,0.254 -0.282,0.244 -0.256,0.218 -0.306,0.253 -0.262,0.213 -0.309,0.241 -0.256,0.2 -0.336,0.251 -0.233,0.17 -0.329,0.235 -0.284,0.196 -0.302,0.206 -0.29,0.191 -0.303,0.195 -0.309,0.192 -0.312,0.19 -0.284,0.168 -0.324,0.188 -0.293,0.164 -0.341,0.186 -0.246,0.131 c -0.131,0.067 -0.259,0.135 -0.39,0.201 l -0.218,0.108 c -0.134,0.067 -0.271,0.134 -0.407,0.199 l -0.25,0.116 c -0.129,0.06 -0.257,0.12 -0.385,0.178 l -0.223,0.097 c -0.543,0.238 -1.09,0.461 -1.646,0.664 l -0.053,0.021 c -0.162,0.059 -0.326,0.117 -0.49,0.172 l -0.167,0.06 c -0.141,0.048 -0.285,0.094 -0.427,0.14 l -0.243,0.078 c -0.148,0.047 -0.298,0.092 -0.448,0.136 l -0.202,0.061 c -0.155,0.043 -0.309,0.085 -0.464,0.128 l -0.21,0.058 c -0.156,0.04 -0.314,0.079 -0.471,0.118 l -0.191,0.047 c -0.159,0.037 -0.315,0.074 -0.474,0.108 l -0.209,0.046 -0.473,0.098 -0.197,0.038 c -0.157,0.029 -0.312,0.057 -0.469,0.085 l -0.221,0.038 -0.476,0.074 -0.19,0.028 c -0.165,0.024 -0.331,0.046 -0.496,0.068 l -0.176,0.02 c -0.172,0.021 -0.343,0.04 -0.515,0.058 l -0.167,0.015 c -0.172,0.017 -0.345,0.033 -0.516,0.046 l -0.153,0.011 c -0.189,0.015 -0.378,0.026 -0.566,0.036 l -0.021,0.002 c -0.218,0.012 -0.438,0.021 -0.658,0.028 h -0.026 c -0.217,0.008 -0.435,0.012 -0.652,0.014 h -0.026 c -1.793,0.014 -3.591,-0.137 -5.373,-0.45 l -0.037,-0.007 c -0.212,-0.037 -0.423,-0.077 -0.633,-0.119 l -0.042,-0.008 c -0.208,-0.042 -0.417,-0.087 -0.624,-0.134 l -0.058,-0.012 c -0.206,-0.047 -0.412,-0.096 -0.618,-0.148 l -0.048,-0.012 c -0.214,-0.052 -0.426,-0.109 -0.638,-0.167 l -0.014,-0.002 c -3.766,-1.035 -7.395,-2.833 -10.671,-5.419 1.36,8.452 2.356,17.025 2.987,25.659 l 0.002,0.001 c 7.582,10.116 24.549,14.573 39.999,1.496 l 0.006,-0.004 c -0.521,-10.116 -1.419,-20.189 -2.698,-30.157"
           style="fill:#f5f6f6;fill-opacity:1;fill-rule:evenodd;stroke:none"
           id="path49135"
           inkscape:connector-curvature="0" /><path
           d="m 291.189,258.987 c -14.223,4.754 -27.455,10.852 -39.596,17.946 26.426,62.131 27.948,143.564 3.382,208.211 12.303,6.989 25.449,13.027 39.147,17.786 2.024,-6.186 3.876,-12.469 5.556,-18.831 6.268,-23.723 17.615,-42.501 35.699,-59.086 8.505,-7.801 13.618,-19.65 13.618,-31.815 0,-11.558 -4.607,-22.878 -12.422,-30.678 -17.423,-17.395 -27.985,-36.719 -33.214,-60.775 -3.194,-14.701 -7.255,-29.019 -12.17,-42.758"
           style="fill:#e8e8e7;fill-opacity:1;fill-rule:evenodd;stroke:none"
           id="path49137"
           inkscape:connector-curvature="0" /><path
           d="m 263.285,458.954 c -1.585,6.106 -3.375,12.115 -5.372,18.003 12.098,6.52 25.203,12.048 39.216,16.28 0.89,-3.026 1.741,-6.073 2.549,-9.138 0.874,-3.3 1.843,-6.503 2.917,-9.618 -13.495,-3.751 -26.635,-8.916 -39.31,-15.527"
           style="fill:#ffffff;fill-opacity:1;fill-rule:evenodd;stroke:none"
           id="path49139"
           inkscape:connector-curvature="0" /><path
           d="m 291.189,258.987 c -14.223,4.754 -27.455,10.852 -39.596,17.946 13.348,31.389 20.34,67.703 20.826,104.293 h 74.925 c -1.99,-7.119 -5.708,-13.652 -10.771,-18.706 -17.423,-17.395 -27.985,-36.719 -33.214,-60.775 -3.194,-14.701 -7.255,-29.019 -12.17,-42.758"
           style="fill:#cdcccb;fill-opacity:1;fill-rule:evenodd;stroke:none"
           id="path49141"
           inkscape:connector-curvature="0" /><path
           d="m 291.189,258.987 -0.01,0.004 -1.087,0.365 c -0.569,0.194 -1.134,0.391 -1.7,0.588 -0.434,0.153 -0.868,0.307 -1.301,0.461 -0.52,0.184 -1.039,0.373 -1.556,0.563 -0.416,0.152 -0.833,0.304 -1.249,0.461 -0.549,0.205 -1.098,0.412 -1.647,0.623 -0.398,0.15 -0.795,0.304 -1.192,0.459 -0.501,0.195 -1.001,0.392 -1.501,0.592 -0.452,0.179 -0.904,0.361 -1.353,0.544 -0.455,0.186 -0.908,0.372 -1.361,0.557 -0.499,0.207 -0.995,0.416 -1.491,0.625 -0.421,0.18 -0.841,0.359 -1.26,0.537 -0.533,0.233 -1.067,0.465 -1.597,0.697 l -1.073,0.479 c -0.555,0.248 -1.109,0.498 -1.662,0.752 l -0.86,0.396 c -0.738,0.342 -1.475,0.69 -2.207,1.038 l -0.24,0.117 c -1.599,0.765 -3.182,1.549 -4.749,2.345 l -0.595,0.307 c -0.78,0.4 -1.554,0.805 -2.325,1.213 l -0.085,0.045 c -2.543,1.351 -5.042,2.744 -7.495,4.178 4.963,11.67 9.047,24.021 12.244,36.817 12.822,-5.84 25.855,-10.499 39.077,-14.017 -3.124,-13.994 -7.032,-27.634 -11.725,-40.746"
           style="fill:#f5f6f6;fill-opacity:1;fill-rule:evenodd;stroke:none"
           id="path49143"
           inkscape:connector-curvature="0" /><path
           d="m 470.82,486 c 10.667,-6.024 20.761,-12.854 30.278,-20.353 -23.92,-20.305 -39.103,-50.588 -39.103,-84.421 0,-33.047 14.485,-62.706 37.449,-82.989 -9.638,-7.371 -19.765,-14.129 -30.302,-20.134 -26.323,26.429 -42.594,62.874 -42.594,103.123 0,41.095 16.969,78.22 44.272,104.774"
           style="fill:#e8e8e7;fill-opacity:1;fill-rule:evenodd;stroke:none"
           id="path49145"
           inkscape:connector-curvature="0" /><path
           d="m 492.341,457.354 c -3.124,-3.295 -6.046,-6.783 -8.749,-10.442 -10.802,5.917 -21.62,11.088 -32.422,15.505 3.241,4.841 6.767,9.479 10.548,13.888 10.615,-5.596 20.85,-11.955 30.623,-18.951"
           style="fill:#ffffff;fill-opacity:1;fill-rule:evenodd;stroke:none"
           id="path49147"
           inkscape:connector-curvature="0" /><path
           d="m 461.995,381.226 c 0,-33.047 14.485,-62.706 37.449,-82.989 -9.638,-7.371 -19.765,-14.129 -30.302,-20.134 -26.323,26.429 -42.594,62.874 -42.594,103.123 z"
           style="fill:#cdcccb;fill-opacity:1;fill-rule:evenodd;stroke:none"
           id="path49149"
           inkscape:connector-curvature="0" /><path
           d="m 483.021,316.314 c 4.798,-6.613 10.31,-12.678 16.423,-18.077 l -0.582,-0.443 c -0.606,-0.461 -1.214,-0.92 -1.823,-1.375 l -1.11,-0.826 c -0.569,-0.422 -1.138,-0.84 -1.708,-1.254 -0.415,-0.303 -0.83,-0.604 -1.248,-0.904 -0.525,-0.379 -1.05,-0.754 -1.577,-1.127 -0.45,-0.321 -0.902,-0.639 -1.354,-0.955 -0.538,-0.377 -1.078,-0.754 -1.621,-1.125 -0.463,-0.321 -0.927,-0.639 -1.393,-0.956 -0.507,-0.345 -1.015,-0.689 -1.525,-1.031 -0.48,-0.322 -0.961,-0.642 -1.443,-0.961 -0.489,-0.322 -0.978,-0.644 -1.468,-0.963 -0.53,-0.347 -1.062,-0.691 -1.596,-1.033 -0.453,-0.291 -0.907,-0.582 -1.363,-0.871 -0.563,-0.357 -1.126,-0.711 -1.691,-1.062 l -1.287,-0.797 c -0.575,-0.354 -1.15,-0.705 -1.727,-1.055 -0.477,-0.287 -0.953,-0.572 -1.431,-0.857 -0.557,-0.332 -1.115,-0.663 -1.676,-0.991 -0.439,-0.257 -0.879,-0.513 -1.32,-0.769 -0.453,-0.262 -0.905,-0.52 -1.359,-0.779 -7.811,7.841 -14.739,16.568 -20.618,26.014 11.431,3.394 22.933,7.462 34.497,12.197"
           style="fill:#f5f6f6;fill-opacity:1;fill-rule:evenodd;stroke:none"
           id="path49151"
           inkscape:connector-curvature="0" /><path
           d="m 497.687,468.287 c 1.144,-0.87 2.283,-1.75 3.411,-2.64 -23.92,-20.305 -39.103,-50.588 -39.103,-84.421 0,-33.047 14.485,-62.706 37.449,-82.989 -6.297,-4.816 -12.802,-9.371 -19.496,-13.625 -17.499,22.813 -27.909,51.349 -27.909,82.321 0,40.342 17.653,76.553 45.648,101.354"
           style="fill:#2f2d2d;fill-opacity:1;fill-rule:evenodd;stroke:none"
           id="path49153"
           inkscape:connector-curvature="0" /><path
           d="m 492.341,457.354 c -3.124,-3.295 -6.046,-6.783 -8.749,-10.442 -1.283,0.702 -2.568,1.389 -3.85,2.071 2.867,3.756 5.926,7.358 9.164,10.791 1.152,-0.797 2.296,-1.605 3.435,-2.42"
           style="fill:#6c6e6f;fill-opacity:1;fill-rule:evenodd;stroke:none"
           id="path49155"
           inkscape:connector-curvature="0" /><path
           d="m 461.995,381.226 c 0,-33.047 14.485,-62.706 37.449,-82.989 -6.297,-4.816 -12.802,-9.371 -19.496,-13.625 -17.499,22.813 -27.909,51.349 -27.909,82.321 0,4.828 0.256,9.596 0.749,14.293 z"
           style="fill:#1c1a19;fill-opacity:1;fill-rule:evenodd;stroke:none"
           id="path49157"
           inkscape:connector-curvature="0" /><path
           d="m 483.021,316.314 c 4.798,-6.613 10.31,-12.678 16.423,-18.077 l -0.537,-0.408 c -0.633,-0.484 -1.267,-0.963 -1.906,-1.439 l -1.046,-0.78 c -0.584,-0.431 -1.169,-0.859 -1.755,-1.287 -0.393,-0.287 -0.788,-0.572 -1.182,-0.857 -0.54,-0.389 -1.081,-0.776 -1.625,-1.16 -0.455,-0.323 -0.91,-0.645 -1.366,-0.963 -0.508,-0.356 -1.018,-0.711 -1.53,-1.065 -0.473,-0.326 -0.946,-0.65 -1.424,-0.974 -0.519,-0.354 -1.039,-0.707 -1.561,-1.057 -0.481,-0.322 -0.962,-0.644 -1.445,-0.963 -0.494,-0.326 -0.988,-0.65 -1.484,-0.974 -0.527,-0.344 -1.057,-0.686 -1.587,-1.028 -0.349,-0.222 -0.698,-0.445 -1.048,-0.668 -5.874,7.658 -10.948,15.961 -15.098,24.784 6.038,2.121 12.095,4.43 18.171,6.916"
           style="fill:#4d4d4f;fill-opacity:1;fill-rule:evenodd;stroke:none"
           id="path49159"
           inkscape:connector-curvature="0" /><path
           d="m 370.887,547.127 c 26.041,0 50.273,-14.267 61.13,-34.087 -13.67,16.311 -37.022,27.379 -61.862,27.379 -19.75,0 -36.355,-6.997 -46.622,-18.063 8.086,14.822 25.609,24.771 47.354,24.771"
           style="fill:#f14825;fill-opacity:1;fill-rule:evenodd;stroke:none"
           id="path49161"
           inkscape:connector-curvature="0" /><path
           d="m 291.189,258.987 c -4.91,1.641 -9.698,3.442 -14.365,5.387 4.461,11.588 8.324,23.594 11.581,35.9 6.299,23.801 12.686,46.229 30.868,62.824 8.157,7.443 18.296,14.953 18.813,26.498 0.543,12.153 -4.033,24.22 -12.182,32.393 -17.323,17.376 -23.955,37.167 -29.155,61.145 -1.395,6.431 -2.964,12.791 -4.709,19.06 0.692,0.248 1.387,0.494 2.082,0.736 2.024,-6.186 3.876,-12.469 5.556,-18.831 6.268,-23.723 17.615,-42.501 35.699,-59.086 8.505,-7.801 13.618,-19.65 13.618,-31.815 0,-11.558 -4.607,-22.878 -12.422,-30.678 -17.423,-17.395 -27.985,-36.719 -33.214,-60.775 -3.194,-14.701 -7.255,-29.019 -12.17,-42.758"
           style="fill:#2f2d2d;fill-opacity:1;fill-rule:evenodd;stroke:none"
           id="path49163"
           inkscape:connector-curvature="0" /><path
           d="m 299.004,473.455 c -0.795,3.15 -1.538,6.375 -2.255,9.679 -0.678,3.124 -1.396,6.231 -2.156,9.32 0.843,0.265 1.687,0.526 2.536,0.783 0.89,-3.026 1.741,-6.073 2.549,-9.138 0.874,-3.3 1.843,-6.503 2.917,-9.618 -1.199,-0.334 -2.398,-0.671 -3.591,-1.026"
           style="fill:#6c6e6f;fill-opacity:1;fill-rule:evenodd;stroke:none"
           id="path49165"
           inkscape:connector-curvature="0" /><path
           d="m 291.189,258.987 c -4.91,1.641 -9.698,3.442 -14.365,5.387 4.461,11.588 8.324,23.594 11.581,35.9 6.299,23.801 12.686,46.229 30.868,62.824 6.004,5.479 13.082,10.994 16.608,18.128 h 11.463 c -1.99,-7.119 -5.708,-13.652 -10.771,-18.706 -17.423,-17.395 -27.985,-36.719 -33.214,-60.775 -3.194,-14.701 -7.255,-29.019 -12.17,-42.758"
           style="fill:#1c1a19;fill-opacity:1;fill-rule:evenodd;stroke:none"
           id="path49167"
           inkscape:connector-curvature="0" /><path
           d="m 291.189,258.987 -0.012,0.004 -1.065,0.36 c -0.59,0.201 -1.177,0.404 -1.764,0.609 l -1.045,0.369 -0.228,0.08 c -0.519,0.186 -1.037,0.373 -1.554,0.565 l -1.235,0.455 c -0.533,0.197 -1.063,0.398 -1.596,0.601 -0.423,0.162 -0.846,0.326 -1.269,0.491 -0.487,0.189 -0.972,0.382 -1.457,0.576 -0.447,0.177 -0.896,0.357 -1.343,0.539 -0.468,0.189 -0.936,0.383 -1.401,0.574 l -0.396,0.164 c 4.461,11.588 8.324,23.594 11.581,35.9 0.308,1.166 0.616,2.327 0.927,3.484 4.503,-1.484 9.032,-2.814 13.582,-4.025 -3.124,-13.994 -7.032,-27.634 -11.725,-40.746"
           style="fill:#4d4d4f;fill-opacity:1;fill-rule:evenodd;stroke:none"
           id="path49169"
           inkscape:connector-curvature="0" /><path
           d="m 193.978,326.741 c -3.497,3.744 -7.743,6.405 -12.307,7.937 6.135,31.049 8.468,63.628 6.944,95.904 1.641,1.038 3.198,2.248 4.642,3.629 5.036,-35.411 5.253,-72.082 0.721,-107.47"
           style="fill:#2f2d2d;fill-opacity:1;fill-rule:evenodd;stroke:none"
           id="path49171"
           inkscape:connector-curvature="0" /><path
           d="m 188.855,398.283 c 0.225,6.998 0.272,14.012 0.135,21.023 2.006,1.373 3.874,3.013 5.557,4.916 0.727,-6.262 1.303,-12.557 1.733,-18.868 -2.34,-2.674 -4.844,-5.04 -7.425,-7.071"
           style="fill:#6c6e6f;fill-opacity:1;fill-rule:evenodd;stroke:none"
           id="path49173"
           inkscape:connector-curvature="0" /><path
           d="m 193.978,326.741 c -3.497,3.744 -7.743,6.405 -12.307,7.937 3.007,15.221 5.1,30.808 6.273,46.548 h 9.256 c 0.153,-18.27 -0.923,-36.543 -3.222,-54.485"
           style="fill:#1c1a19;fill-opacity:1;fill-rule:evenodd;stroke:none"
           id="path49175"
           inkscape:connector-curvature="0" /><path
           d="m 193.978,326.741 -0.006,0.008 c -0.163,0.172 -0.325,0.342 -0.49,0.511 l -0.028,0.03 -0.025,0.025 c -0.162,0.164 -0.328,0.326 -0.49,0.486 l -0.053,0.05 c -0.156,0.151 -0.314,0.301 -0.471,0.447 l -0.103,0.093 c -0.15,0.14 -0.303,0.276 -0.457,0.412 l -0.089,0.078 c -0.161,0.141 -0.321,0.278 -0.484,0.414 l -0.11,0.091 c -0.151,0.125 -0.304,0.249 -0.457,0.371 l -0.125,0.1 c -0.153,0.119 -0.306,0.238 -0.459,0.354 l -0.151,0.113 c -0.145,0.108 -0.289,0.214 -0.435,0.318 l -0.173,0.123 c -0.147,0.105 -0.292,0.206 -0.442,0.307 l -0.121,0.084 c -0.163,0.109 -0.325,0.217 -0.49,0.322 l -0.162,0.105 c -0.147,0.092 -0.295,0.184 -0.443,0.275 l -0.198,0.121 -0.411,0.242 -0.233,0.134 c -0.141,0.08 -0.285,0.161 -0.428,0.238 l -0.206,0.112 -0.371,0.194 -0.3,0.155 -0.374,0.185 -0.276,0.132 -0.375,0.174 -0.294,0.132 -0.047,0.021 -0.207,0.091 -0.052,0.022 c -0.147,0.063 -0.29,0.124 -0.437,0.184 l -0.24,0.096 c -0.146,0.059 -0.295,0.117 -0.443,0.174 l -0.177,0.067 c -0.17,0.064 -0.341,0.126 -0.512,0.187 l -0.034,0.013 -0.214,0.074 -0.003,0.001 -0.211,0.073 c 1.853,9.377 3.36,18.894 4.517,28.5 3.488,-1.303 7.024,-3.35 10.482,-6.278 l 0.006,-0.004 c -0.521,-10.116 -1.419,-20.189 -2.698,-30.157"
           style="fill:#4d4d4f;fill-opacity:1;fill-rule:evenodd;stroke:none"
           id="path49177"
           inkscape:connector-curvature="0" /><path
           d="m 386.854,328.04 c 11.519,8.235 38.297,-1.223 39.621,-15.32 3.655,-38.949 4.354,-91.354 -27.47,-114.106 -24.245,-17.336 -79.097,6.248 -81.883,35.922 -3.632,38.711 38.105,70.891 69.732,93.504"
           style="fill:#1c1a19;fill-opacity:1;fill-rule:evenodd;stroke:none"
           id="path49179"
           inkscape:connector-curvature="0" /><path
           d="m 405.313,284.479 c 14.648,0 26.594,11.946 26.594,26.595 0,14.647 -11.946,26.593 -26.594,26.593 -14.648,0 -26.594,-11.946 -26.594,-26.593 0,-14.649 11.946,-26.595 26.594,-26.595"
           style="fill:#ae2c21;fill-opacity:1;fill-rule:evenodd;stroke:none"
           id="path49181"
           inkscape:connector-curvature="0" /><path
           d="m 390.699,328.325 c 10.446,7.469 34.737,-1.11 35.938,-13.897 3.315,-35.329 3.949,-82.861 -24.918,-103.499 -21.991,-15.723 -71.743,5.668 -74.271,32.584 -3.296,35.113 34.562,64.3 63.251,84.812"
           style="fill:#d73722;fill-opacity:1;fill-rule:evenodd;stroke:none"
           id="path49183"
           inkscape:connector-curvature="0" /><path
           d="m 507.015,397.323 c 7.587,0 13.776,6.188 13.776,13.776 0,7.589 -6.189,13.776 -13.776,13.776 -7.588,0 -13.776,-6.187 -13.776,-13.776 0,-7.588 6.188,-13.776 13.776,-13.776"
           style="fill:#ffffff;fill-opacity:1;fill-rule:evenodd;stroke:none"
           id="path49185"
           inkscape:connector-curvature="0" /><path
           d="m 507.015,403.073 c 4.421,0 8.027,3.605 8.027,8.026 0,4.421 -3.606,8.027 -8.027,8.027 -4.422,0 -8.028,-3.606 -8.028,-8.027 0,-4.421 3.606,-8.026 8.028,-8.026"
           style="fill:#2f2d2d;fill-opacity:1;fill-rule:evenodd;stroke:none"
           id="path49187"
           inkscape:connector-curvature="0" /><path
           d="m 500.307,408.315 c 1.5,0 2.724,1.225 2.724,2.725 0,1.501 -1.224,2.726 -2.724,2.726 -1.501,0 -2.725,-1.225 -2.725,-2.726 0,-1.5 1.224,-2.725 2.725,-2.725"
           style="fill:#ffffff;fill-opacity:1;fill-rule:evenodd;stroke:none"
           id="path49189"
           inkscape:connector-curvature="0" /><path
           d="m 514.345,410.125 c 2.341,0 4.252,1.91 4.252,4.252 0,2.342 -1.911,4.253 -4.252,4.253 -2.343,0 -4.254,-1.911 -4.254,-4.253 0,-2.342 1.911,-4.252 4.254,-4.252"
           style="fill:#ffffff;fill-opacity:1;fill-rule:evenodd;stroke:none"
           id="path49191"
           inkscape:connector-curvature="0" /><path
           d="m 533.093,381.226 c 11.029,-0.486 21.311,-5.459 33.576,-3.129 14.818,2.816 6.609,23.735 -6.281,15.615 -12.557,-7.911 -16.275,-6.162 -27.295,-12.486"
           style="fill:#f14825;fill-opacity:1;fill-rule:evenodd;stroke:none"
           id="path49193"
           inkscape:connector-curvature="0" /></g></g></g></svg>