<?xml version="1.0" encoding="UTF-8" standalone="no"?>
<!-- Created with Inkscape (http://www.inkscape.org/) -->

<svg
   xmlns:dc="http://purl.org/dc/elements/1.1/"
   xmlns:cc="http://creativecommons.org/ns#"
   xmlns:rdf="http://www.w3.org/1999/02/22-rdf-syntax-ns#"
   xmlns:svg="http://www.w3.org/2000/svg"
   xmlns="http://www.w3.org/2000/svg"
   xmlns:sodipodi="http://sodipodi.sourceforge.net/DTD/sodipodi-0.dtd"
   xmlns:inkscape="http://www.inkscape.org/namespaces/inkscape"
   version="1.1"
   id="svg85540"
   xml:space="preserve"
   width="800"
   height="800"
   viewBox="0 0 800 800"
   sodipodi:docname="thinking-man-publicdomainvectors.org.svg"
   inkscape:version="0.92.4 (5da689c313, 2019-01-14)"><metadata
     id="metadata85546"><rdf:RDF><cc:Work
         rdf:about=""><dc:format>image/svg+xml</dc:format><dc:type
           rdf:resource="http://purl.org/dc/dcmitype/StillImage" /><dc:title></dc:title></cc:Work></rdf:RDF></metadata><defs
     id="defs85544"><clipPath
       clipPathUnits="userSpaceOnUse"
       id="clipPath85556"><path
         d="M 0,600 H 600 V 0 H 0 Z"
         id="path85554"
         inkscape:connector-curvature="0" /></clipPath></defs><sodipodi:namedview
     pagecolor="#ffffff"
     bordercolor="#666666"
     borderopacity="1"
     objecttolerance="10"
     gridtolerance="10"
     guidetolerance="10"
     inkscape:pageopacity="0"
     inkscape:pageshadow="2"
     inkscape:window-width="797"
     inkscape:window-height="480"
     id="namedview85542"
     showgrid="false"
     inkscape:zoom="0.295"
     inkscape:cx="400"
     inkscape:cy="400"
     inkscape:window-x="0"
     inkscape:window-y="0"
     inkscape:window-maximized="0"
     inkscape:current-layer="g85548" /><g
     id="g85548"
     inkscape:groupmode="layer"
     inkscape:label="thinking-man-publicdomainvectors.org"
     transform="matrix(1.3333333,0,0,-1.3333333,0,800)"><g
       id="g85550"><g
         id="g85552"
         clip-path="url(#clipPath85556)"><path
           d="m 299.938,572.283 c -2.198,-2.803 -4.18,-5.623 -4.83,-7.25 -1.508,-3.782 -1.139,-9.829 -1.888,-13.986 -0.419,-2.288 -1.865,-9.154 -3.207,-15.434 l 15.217,-22.1 z"
           style="fill:#003c36;fill-opacity:1;fill-rule:nonzero;stroke:none"
           id="path85558"
           inkscape:connector-curvature="0" /><path
           d="m 360.814,517.691 0.827,8.405 0.38,13.986 -0.766,9.83 3.03,4.912 -5.669,18.145 c 0,0 -6.809,19.279 -24.574,16.635 -11.122,-1.656 -18.097,-4.202 -22.222,-6.244 l 45.361,-75.108 z"
           style="fill:#005632;fill-opacity:1;fill-rule:nonzero;stroke:none"
           id="path85560"
           inkscape:connector-curvature="0" /><path
           d="M 357.181,508.252 311.82,583.36 c -2.466,-1.221 -3.914,-2.263 -4.621,-2.829 -1.073,-0.859 -4.354,-4.541 -7.261,-8.248 l 5.292,-58.77 z"
           style="fill:#006a3e;fill-opacity:1;fill-rule:nonzero;stroke:none"
           id="path85562"
           inkscape:connector-curvature="0" /><path
           d="m 290.013,535.613 c -1.098,-5.134 -2.126,-9.875 -2.468,-11.407 -0.754,-3.403 -1.51,-7.56 -1.51,-7.56 l -1.373,-0.731 20.568,-2.402 z"
           style="fill:#58982e;fill-opacity:1;fill-rule:nonzero;stroke:none"
           id="path85564"
           inkscape:connector-curvature="0" /><path
           d="m 359.88,508.185 0.934,9.506 -3.633,-9.439 z"
           style="fill:#00632d;fill-opacity:1;fill-rule:nonzero;stroke:none"
           id="path85566"
           inkscape:connector-curvature="0" /><path
           d="m 297.073,508.105 c 0.282,0.852 0.7,1.557 1.429,1.738 0.397,0.099 1.057,0.251 1.83,0.423 l 4.898,3.247 -20.568,2.402 -9.968,-5.317 -4.54,3.027 -27.816,-30.138 4.366,-8.773 z"
           style="fill:#6dc937;fill-opacity:1;fill-rule:nonzero;stroke:none"
           id="path85568"
           inkscape:connector-curvature="0" /><path
           d="m 424.898,444.909 c -1.43,4.542 -3.155,10.496 -3.155,10.496 l -1.514,17.39 -4.533,9.451 -1.675,9.044 -53.114,-37.18 z"
           style="fill:#007438;fill-opacity:1;fill-rule:nonzero;stroke:none"
           id="path85570"
           inkscape:connector-curvature="0" /><path
           d="m 360.907,454.11 53.114,37.18 -0.214,1.162 c 0,0 -46.118,10.959 -46.493,12.097 -0.385,1.132 -7.569,2.267 -7.569,2.267 l 0.135,1.369 -2.699,0.067 z"
           style="fill:#007f3b;fill-opacity:1;fill-rule:nonzero;stroke:none"
           id="path85572"
           inkscape:connector-curvature="0" /><path
           d="m 242.338,483.487 -4.766,-5.163 9.132,-3.61 z"
           style="fill:#abc300;fill-opacity:1;fill-rule:nonzero;stroke:none"
           id="path85574"
           inkscape:connector-curvature="0" /><path
           d="m 237.572,478.324 -3.708,-4.017 c -0.428,-0.141 -3.095,-3.612 -6.236,-8.151 l 19.076,8.558 z"
           style="fill:#c8c400;fill-opacity:1;fill-rule:nonzero;stroke:none"
           id="path85576"
           inkscape:connector-curvature="0" /><path
           d="m 357.181,508.252 -48.225,-50.635 51.951,-3.507 z"
           style="fill:#009748;fill-opacity:1;fill-rule:nonzero;stroke:none"
           id="path85578"
           inkscape:connector-curvature="0" /><path
           d="m 305.23,513.513 0.145,-2.171 c 0.471,0.094 0.846,0.167 1.063,0.203 1.136,0.191 3.97,-0.377 4.92,-0.567 0.946,-0.187 3.589,-1.322 3.589,-1.322 l -0.94,-5.483 -1.514,-7.751 -2.84,-7.184 -2.75,-0.807 2.053,-30.814 48.225,50.635 z"
           style="fill:#008d48;fill-opacity:1;fill-rule:nonzero;stroke:none"
           id="path85580"
           inkscape:connector-curvature="0" /><path
           d="m 309.083,505.122 c -0.235,0 -1.622,-0.264 -3.253,-0.598 l 0.437,-6.544 c 1.209,0.203 2.375,0.457 2.626,0.712 0.57,0.564 0.76,6.43 0.19,6.43"
           style="fill:#008d48;fill-opacity:1;fill-rule:nonzero;stroke:none"
           id="path85582"
           inkscape:connector-curvature="0" /><path
           d="m 305.23,513.513 -4.898,-3.247 c 1.607,0.359 3.715,0.808 5.043,1.076 z"
           style="fill:#169e4c;fill-opacity:1;fill-rule:nonzero;stroke:none"
           id="path85584"
           inkscape:connector-curvature="0" /><path
           d="m 283.956,481.685 c 0.944,0.754 6.423,4.72 6.043,4.53 -0.374,-0.189 -1.319,5.863 -1.515,6.054 -0.184,0.187 14.746,5.291 14.746,5.291 0,0 1.551,0.17 3.037,0.42 l -0.437,6.544 c -2.282,-0.467 -5.042,-1.073 -5.809,-1.294 -1.331,-0.377 -3.973,0.567 -3.594,2.077 0.199,0.785 0.342,1.877 0.646,2.798 l -50.369,-33.391 16.516,-4.535 c 0.212,0.184 0.385,0.31 0.507,0.349 1.133,0.38 5.102,-0.187 5.102,-0.187 0,0 0.048,-0.8 -0.021,-1.696 l 40.148,-11.028 -2.053,30.814 z"
           style="fill:#169e4c;fill-opacity:1;fill-rule:nonzero;stroke:none"
           id="path85586"
           inkscape:connector-curvature="0" /><path
           d="m 383.923,408.078 41.738,34.47 c -0.234,0.704 -0.494,1.508 -0.763,2.361 l -63.991,9.201 z"
           style="fill:#008a43;fill-opacity:1;fill-rule:nonzero;stroke:none"
           id="path85588"
           inkscape:connector-curvature="0" /><path
           d="m 268.808,468.645 c -0.072,-0.899 -0.26,-1.894 -0.734,-2.275 -0.944,-0.757 -11.151,-3.781 -11.151,-3.781 0,0 4.525,6.036 6.297,7.59 l -16.516,4.535 9.191,-51.351 c 3.426,0.163 5.948,0.297 5.948,0.297 l 12.096,3.025 1.883,-10.147 33.134,41.079 z"
           style="fill:#74e04a;fill-opacity:1;fill-rule:nonzero;stroke:none"
           id="path85590"
           inkscape:connector-curvature="0" /><path
           d="m 227.628,466.156 c -5.128,-7.411 -11.523,-17.67 -11.523,-20.952 0,-5.288 18.52,-21.924 21.538,-22.305 1.986,-0.241 11.749,0.16 18.252,0.464 l -9.191,51.351 z"
           style="fill:#afdf00;fill-opacity:1;fill-rule:nonzero;stroke:none"
           id="path85592"
           inkscape:connector-curvature="0" /><path
           d="m 360.907,454.11 -51.951,3.507 74.967,-49.539 z"
           style="fill:#009b4c;fill-opacity:1;fill-rule:nonzero;stroke:none"
           id="path85594"
           inkscape:connector-curvature="0" /><path
           d="m 308.956,457.617 -19.509,-95.79 94.476,46.251 z"
           style="fill:#14b456;fill-opacity:1;fill-rule:nonzero;stroke:none"
           id="path85596"
           inkscape:connector-curvature="0" /><path
           d="m 308.956,457.617 -33.134,-41.079 1.136,-6.109 c 0,0 2.27,-18.9 2.27,-20.035 0,-0.396 -0.967,-5.991 -2.257,-13.159 l 12.476,-15.408 z"
           style="fill:#67d759;fill-opacity:1;fill-rule:nonzero;stroke:none"
           id="path85598"
           inkscape:connector-curvature="0" /><path
           d="m 430.97,404.026 -1.668,13.579 c 0,0 -1.884,21.169 -2.639,22.305 -0.179,0.266 -0.545,1.266 -1.002,2.638 l -41.738,-34.47 z"
           style="fill:#00743e;fill-opacity:1;fill-rule:nonzero;stroke:none"
           id="path85600"
           inkscape:connector-curvature="0" /><path
           d="m 383.923,408.078 -94.476,-46.251 77.817,-56.334 z"
           style="fill:#31bd57;fill-opacity:1;fill-rule:nonzero;stroke:none"
           id="path85602"
           inkscape:connector-curvature="0" /><path
           d="m 431.449,352.149 c 0.055,0.219 0.093,0.369 0.116,0.44 0.386,1.128 3.031,21.924 3.031,21.924 l -3.626,29.513 -47.047,4.052 z"
           style="fill:#00693f;fill-opacity:1;fill-rule:nonzero;stroke:none"
           id="path85604"
           inkscape:connector-curvature="0" /><path
           d="m 397.545,386.609 2.454,-2.08 2.466,-9.071 v -20.79 c 0,-1.135 -1.705,-7.184 -1.705,-7.184 0,0 -3.406,5.669 -3.602,6.994 -0.183,1.325 -1.129,16.256 -1.318,17.201 -0.185,0.945 1.14,13.985 1.705,14.93 m -30.281,-81.116 55.896,8.232 3.503,16.559 c 0,0 3.983,18.596 4.786,21.865 l -47.526,55.929 z"
           style="fill:#018147;fill-opacity:1;fill-rule:nonzero;stroke:none"
           id="path85606"
           inkscape:connector-curvature="0" /><path
           d="m 289.447,361.827 43.183,-63.348 34.634,7.014 z"
           style="fill:#8beb45;fill-opacity:1;fill-rule:nonzero;stroke:none"
           id="path85608"
           inkscape:connector-curvature="0" /><path
           d="m 276.971,377.235 c -1.341,-7.445 -3.031,-16.584 -4.351,-23.354 l 16.827,7.946 z"
           style="fill:#b7f325;fill-opacity:1;fill-rule:nonzero;stroke:none"
           id="path85610"
           inkscape:connector-curvature="0" /><path
           d="m 272.62,353.881 c -1.051,-5.393 -1.867,-9.281 -2.086,-9.611 -0.661,-0.989 -8.001,-49.596 -9.806,-61.602 l 0.967,-2.951 4.455,-0.954 23.297,83.064 z"
           style="fill:#d8f800;fill-opacity:1;fill-rule:nonzero;stroke:none"
           id="path85612"
           inkscape:connector-curvature="0" /><path
           d="m 289.447,361.827 -23.297,-83.064 4.765,-1.019 c 0,0 -0.651,-1.628 -1.412,-3.748 l 63.127,24.483 z"
           style="fill:#c5f52b;fill-opacity:1;fill-rule:nonzero;stroke:none"
           id="path85614"
           inkscape:connector-curvature="0" /><path
           d="m 406.232,275.614 c 0.007,0.524 0.01,0.871 0.01,0.99 0,1.134 -1.889,10.207 -1.889,10.207 l 4.914,6.048 13.237,17.765 0.656,3.101 -55.896,-8.232 z"
           style="fill:#6cb02e;fill-opacity:1;fill-rule:nonzero;stroke:none"
           id="path85616"
           inkscape:connector-curvature="0" /><path
           d="m 260.328,280.008 1.367,-0.291 -0.967,2.951 c -0.256,-1.693 -0.4,-2.66 -0.4,-2.66"
           style="fill:#f9ed00;fill-opacity:1;fill-rule:nonzero;stroke:none"
           id="path85618"
           inkscape:connector-curvature="0" /><path
           d="m 332.63,298.479 -63.127,-24.483 c -0.283,-0.788 -0.582,-1.645 -0.868,-2.511 l 59.173,-6.325 z"
           style="fill:#cbf300;fill-opacity:1;fill-rule:nonzero;stroke:none"
           id="path85620"
           inkscape:connector-curvature="0" /><path
           d="m 375.374,253.543 30.444,-0.332 c 0.033,0.215 0.05,0.335 0.05,0.335 0,0 0.301,17.579 0.364,22.068 l -38.968,29.879 z"
           style="fill:#8bcf0d;fill-opacity:1;fill-rule:nonzero;stroke:none"
           id="path85622"
           inkscape:connector-curvature="0" /><path
           d="m 332.63,298.479 -4.822,-33.319 39.456,40.333 z"
           style="fill:#96ea0c;fill-opacity:1;fill-rule:nonzero;stroke:none"
           id="path85624"
           inkscape:connector-curvature="0" /><path
           d="m 327.808,265.16 47.566,-11.617 -8.11,51.95 z"
           style="fill:#9ae200;fill-opacity:1;fill-rule:nonzero;stroke:none"
           id="path85626"
           inkscape:connector-curvature="0" /><path
           d="m 265.451,215.437 c -0.13,-1.147 -0.205,-1.972 -0.205,-2.33 0,-2.269 2.645,-20.04 3.019,-21.549 0.007,-0.031 0.014,-0.077 0.022,-0.127 l 41.611,-10.768 c 0.516,4.193 1.086,8.631 1.086,8.631 0,0 10.206,19.274 10.587,29.101 0.374,9.828 4.154,16.635 4.908,19.28 0.087,0.304 0.23,0.722 0.416,1.22 l 0.913,26.265 z"
           style="fill:#f0d000;fill-opacity:1;fill-rule:nonzero;stroke:none"
           id="path85628"
           inkscape:connector-curvature="0" /><path
           d="m 268.635,271.485 c -0.797,-2.418 -1.499,-4.912 -1.499,-6.212 0,-3.03 2.65,-24.2 1.889,-26.467 -0.641,-1.91 -2.884,-17.235 -3.574,-23.369 l 62.357,49.723 z"
           style="fill:#f6e600;fill-opacity:1;fill-rule:nonzero;stroke:none"
           id="path85630"
           inkscape:connector-curvature="0" /><path
           d="m 327.808,265.16 -0.913,-26.265 c 1.425,3.812 5.389,12.386 6.394,12.386 1.134,0 3.772,-0.38 3.772,-0.38 l 12.318,-36.744 25.995,39.386 z"
           style="fill:#c7df00;fill-opacity:1;fill-rule:nonzero;stroke:none"
           id="path85632"
           inkscape:connector-curvature="0" /><path
           d="m 406.734,206.228 1.03,20.473 c 0,0 -4.545,9.834 -4.164,12.097 0.341,2.05 1.916,12.419 2.218,14.413 l -30.444,0.332 z"
           style="fill:#b5b900;fill-opacity:1;fill-rule:nonzero;stroke:none"
           id="path85634"
           inkscape:connector-curvature="0" /><path
           d="m 371.867,160.384 37.36,12.401 c -1.116,7.675 -1.85,12.821 -1.85,13.092 0,1.137 -1.135,10.589 -1.135,10.589 l 0.492,9.762 -31.36,47.315 z"
           style="fill:#c2b200;fill-opacity:1;fill-rule:nonzero;stroke:none"
           id="path85636"
           inkscape:connector-curvature="0" /><path
           d="m 375.374,253.543 -25.995,-39.386 10.366,-30.918 5.333,-20.488 6.789,-2.367 z"
           style="fill:#d3bf00;fill-opacity:1;fill-rule:nonzero;stroke:none"
           id="path85638"
           inkscape:connector-curvature="0" /><path
           d="m 266.381,161.322 c -0.684,-2.285 -0.268,-15.57 0.005,-26.583 l 42.416,30.589 c 0.165,4.348 0.287,7.715 0.287,8.085 0,0.513 0.386,3.798 0.809,7.25 l -41.611,10.768 c 0.311,-2.417 -0.801,-26.41 -1.906,-30.109"
           style="fill:#fb9b00;fill-opacity:1;fill-rule:nonzero;stroke:none"
           id="path85640"
           inkscape:connector-curvature="0" /><path
           d="m 266.381,119.737 c -0.224,-1.113 -0.709,-5.309 -1.303,-10.732 l 37.846,-15.159 c 1.739,10.58 5.135,28.449 5.417,29.291 0.374,1.134 -0.387,20.409 -0.387,20.409 0,0 0.51,12.928 0.848,21.782 l -42.416,-30.589 c 0.178,-7.243 0.295,-13.502 -0.005,-15.002"
           style="fill:#f56500;fill-opacity:1;fill-rule:nonzero;stroke:none"
           id="path85642"
           inkscape:connector-curvature="0" /><path
           d="m 415.434,130.566 c -2.163,14.629 -4.587,31.085 -6.207,42.219 l -37.36,-12.401 z"
           style="fill:#bc5000;fill-opacity:1;fill-rule:nonzero;stroke:none"
           id="path85644"
           inkscape:connector-curvature="0" /><path
           d="m 365.078,162.751 1.851,-7.109 0.313,-1.825 4.625,6.567 z"
           style="fill:#e07000;fill-opacity:1;fill-rule:nonzero;stroke:none"
           id="path85646"
           inkscape:connector-curvature="0" /><path
           d="m 390.061,90.239 29.09,15.212 c -0.89,6.002 -2.242,15.131 -3.717,25.115 l -43.567,29.818 z"
           style="fill:#c22c00;fill-opacity:1;fill-rule:nonzero;stroke:none"
           id="path85648"
           inkscape:connector-curvature="0" /><path
           d="m 371.867,160.384 -4.625,-6.567 7.998,-46.555 1.363,-17.657 13.458,0.634 z"
           style="fill:#d54200;fill-opacity:1;fill-rule:nonzero;stroke:none"
           id="path85650"
           inkscape:connector-curvature="0" /><path
           d="M 261.082,74.375 C 260.393,72.302 257.813,60.45 258.234,55.532 L 301.911,77.7 v 8.766 c 0,0.88 0.405,3.686 1.013,7.38 l -37.846,15.159 c -1.424,-12.992 -3.464,-33.032 -3.996,-34.63"
           style="fill:#fc6300;fill-opacity:1;fill-rule:nonzero;stroke:none"
           id="path85652"
           inkscape:connector-curvature="0" /><path
           d="m 404.309,29.301 9.18,23.522 -0.437,1.132 1.501,1.591 6.967,17.85 -1.291,24.786 c 0,0 -0.408,2.749 -1.078,7.269 l -29.09,-15.212 z"
           style="fill:#be0000;fill-opacity:1;fill-rule:nonzero;stroke:none"
           id="path85654"
           inkscape:connector-curvature="0" /><path
           d="m 419.104,60.378 2.639,8.697 -0.223,4.321 -6.967,-17.85 z"
           style="fill:#b00000;fill-opacity:1;fill-rule:nonzero;stroke:none"
           id="path85656"
           inkscape:connector-curvature="0" /><path
           d="m 413.489,52.823 -9.18,-23.522 22.103,-2.805 c -4.064,7.197 -8.821,15.737 -8.821,15.737 z"
           style="fill:#b00000;fill-opacity:1;fill-rule:nonzero;stroke:none"
           id="path85658"
           inkscape:connector-curvature="0" /><path
           d="m 258.438,54.335 c 0.862,-2.88 1.945,-8.835 2.412,-11.503 l 35.486,-0.08 3.301,1.001 c 0,0 2.274,19.654 2.274,20.788 V 77.7 L 258.234,55.532 c 0.04,-0.466 0.108,-0.871 0.204,-1.197"
           style="fill:#f23700;fill-opacity:1;fill-rule:nonzero;stroke:none"
           id="path85660"
           inkscape:connector-curvature="0" /><path
           d="m 376.603,89.605 0.533,-6.917 c 0,0 0.227,-1.012 0.589,-2.627 l 12.336,10.178 z"
           style="fill:#db2f00;fill-opacity:1;fill-rule:nonzero;stroke:none"
           id="path85662"
           inkscape:connector-curvature="0" /><path
           d="M 390.061,90.239 377.725,80.061 c 1.328,-5.914 4.487,-19.951 5.08,-22.322 0.754,-3.023 5.294,-22.303 6.433,-21.55 1.129,0.761 4.903,2.264 4.903,2.264 0,0 4.145,-3.926 6.471,-8.464 l 3.697,-0.688 z"
           style="fill:#ca1500;fill-opacity:1;fill-rule:nonzero;stroke:none"
           id="path85664"
           inkscape:connector-curvature="0" /><path
           d="m 400.612,29.989 c 0.64,-1.249 1.144,-2.542 1.382,-3.815 l 2.315,3.127 z"
           style="fill:#c80b00;fill-opacity:1;fill-rule:nonzero;stroke:none"
           id="path85666"
           inkscape:connector-curvature="0" /><path
           d="m 261.082,41.484 c 0,0 4.539,1.133 4.539,0 0,-1.134 -4.539,-17.766 -6.423,-18.901 -1.888,-1.134 -7.563,-5.661 -6.428,-7.183 1.134,-1.508 9.067,-11.721 12.851,-9.447 3.778,2.258 13.233,7.178 14.365,6.798 1.136,-0.381 3.78,-1.13 3.78,0 0,1.141 0.755,16.636 0.755,16.636 l 2.643,10.588 9.172,2.777 -35.486,0.08 c 0.146,-0.835 0.232,-1.348 0.232,-1.348"
           style="fill:#f24600;fill-opacity:1;fill-rule:nonzero;stroke:none"
           id="path85668"
           inkscape:connector-curvature="0" /><path
           d="m 429.878,3.185 c 2.111,1.994 4.718,4.277 4.718,4.277 0,0 -1.129,7.178 -2.645,9.448 v -0.012 c -0.594,0.891 -2.923,4.967 -5.539,9.598 l -22.103,2.805 z"
           style="fill:#aa0000;fill-opacity:1;fill-rule:nonzero;stroke:none"
           id="path85670"
           inkscape:connector-curvature="0" /><path
           d="m 401.994,26.174 c 0.036,-0.19 0.067,-0.378 0.091,-0.567 0.76,-6.047 1.515,-20.414 1.515,-20.414 0,0 14.74,-3.778 15.869,-4.159 1.139,-0.374 6.814,-1.888 7.943,-0.374 0.391,0.516 1.36,1.481 2.466,2.525 l -25.569,26.116 z"
           style="fill:#b40000;fill-opacity:1;fill-rule:nonzero;stroke:none"
           id="path85672"
           inkscape:connector-curvature="0" /></g></g></g></svg>