<?xml version="1.0" encoding="UTF-8" standalone="no"?>
<!-- Created with Inkscape (http://www.inkscape.org/) -->

<svg
   version="1.1"
   id="svg1580"
   xml:space="preserve"
   width="1066.6667"
   height="1066.6667"
   viewBox="0 0 1066.6667 1066.6667"
   sodipodi:docname="hacksaw-publicdomainvectors.org.svg"
   inkscape:version="1.1.2 (b8e25be833, 2022-02-05)"
   xmlns:inkscape="http://www.inkscape.org/namespaces/inkscape"
   xmlns:sodipodi="http://sodipodi.sourceforge.net/DTD/sodipodi-0.dtd"
   xmlns="http://www.w3.org/2000/svg"
   xmlns:svg="http://www.w3.org/2000/svg"><defs
     id="defs1584"><clipPath
       clipPathUnits="userSpaceOnUse"
       id="clipPath1594"><path
         d="M 0,800 H 800 V 0 H 0 Z"
         id="path1592" /></clipPath></defs><sodipodi:namedview
     id="namedview1582"
     pagecolor="#ffffff"
     bordercolor="#666666"
     borderopacity="1.0"
     inkscape:pageshadow="2"
     inkscape:pageopacity="0.0"
     inkscape:pagecheckerboard="0"
     showgrid="false"
     inkscape:zoom="0.77906244"
     inkscape:cx="533.33337"
     inkscape:cy="533.33337"
     inkscape:window-width="1920"
     inkscape:window-height="1018"
     inkscape:window-x="-8"
     inkscape:window-y="-8"
     inkscape:window-maximized="1"
     inkscape:current-layer="g1586" /><g
     id="g1586"
     inkscape:groupmode="layer"
     inkscape:label="hacksaw-publicdomainvectors.org"
     transform="matrix(1.3333333,0,0,-1.3333333,0,1066.6667)"><g
       id="g1588"><g
         id="g1590"
         clip-path="url(#clipPath1594)"><path
           d="M 593.921,425.549 132.879,622.323 c -6.636,2.833 -17.256,-1.433 -20.087,-8.069 l -23.225,-54.408 13.412,10.665 -4.367,-14.623 12.38,9.844 -4.367,-14.62 12.376,9.844 -4.367,-14.622 12.377,9.845 -4.366,-14.622 12.375,9.843 -4.366,-14.62 12.377,9.844 -4.365,-14.622 12.375,9.843 -4.366,-14.62 12.376,9.843 -4.367,-14.621 12.377,9.844 -4.368,-14.621 12.377,9.843 -4.365,-14.62 12.376,9.842 -4.366,-14.619 12.377,9.843 -4.367,-14.621 12.377,9.844 -4.368,-14.621 12.377,9.842 -4.368,-14.62 12.377,9.843 -4.367,-14.621 12.378,9.844 -4.365,-14.621 12.375,9.842 -4.366,-14.619 12.375,9.843 -4.366,-14.623 12.377,9.845 -4.368,-14.621 12.377,9.844 -4.365,-14.621 12.375,9.843 -4.365,-14.619 12.375,9.843 -4.365,-14.623 12.377,9.844 -4.368,-14.621 12.377,9.845 -4.368,-14.621 12.377,9.843 -4.366,-14.622 12.375,9.843 -4.365,-14.62 12.377,9.844 -4.368,-14.621 12.377,9.843 -4.366,-14.621 12.377,9.843 -4.367,-14.619 12.376,9.843 -4.367,-14.621 12.376,9.844 -4.365,-14.623 12.377,9.843 -4.366,-14.621 12.377,9.845 -4.367,-14.619 12.376,9.842 -4.368,-14.621 12.377,9.843 -4.367,-14.621 12.378,9.843 -4.367,-14.621 12.377,9.844 -4.367,-14.621 12.376,9.843 -4.366,-14.621 12.377,9.843 -4.368,-14.619 12.377,9.842 -4.367,-14.621 12.377,9.845 -4.366,-14.623 12.377,9.843 -4.368,-14.619 12.377,9.844 -4.366,-14.622 12.375,9.844 -4.365,-14.621 12.376,9.843 -4.367,-14.619 12.377,9.84 -4.366,-14.618 12.376,9.843 -4.367,-14.621 12.377,9.843 -4.367,-14.619 12.376,9.842 -4.365,-14.621 12.377,9.843 -4.368,-14.621 12.376,9.843 -4.367,-14.619 12.377,9.842 -4.366,-14.621 12.377,9.843 -4.367,-14.621 12.377,9.845 -4.366,-14.621 12.377,9.842 -4.368,-14.621 12.377,9.845 -4.366,-14.621 12.375,9.843 -4.365,-14.621 12.374,9.844 -4.365,-14.623 12.377,9.845 -4.368,-14.621 12.378,9.843 -4.367,-14.619 12.377,9.842 -4.368,-14.621 12.377,9.843 -4.732,-15.842 6.098,-3.637 z"
           style="fill:#d3d8e3;fill-opacity:1;fill-rule:evenodd;stroke:none"
           id="path1596" /><path
           d="M 586.153,420.452 129.842,615.207 c -2.678,1.144 -8.79,-1.311 -9.934,-3.991 l -12.885,-30.162 470.633,-280.866 7.833,6.229 z"
           style="fill:#dde2eb;fill-opacity:1;fill-rule:evenodd;stroke:none"
           id="path1598" /><path
           d="m 590.124,274.183 -3.267,-10.94 6.098,-3.637 0.074,12.844 z m -8.01,4.776 5.324,-3.174 -8.226,-6.543 z m -8.009,4.776 -2.902,-9.714 8.225,6.541 z m -8.011,4.779 5.324,-3.176 -8.226,-6.541 z m -8.009,4.776 -2.902,-9.717 8.224,6.543 z m -8.011,4.776 5.323,-3.173 -8.223,-6.541 z m -8.01,4.779 -2.9,-9.715 8.223,6.541 z m -8.008,4.776 5.32,-3.174 -8.223,-6.541 z m -8.012,4.778 -2.9,-9.714 8.222,6.54 z m -8.011,4.777 5.322,-3.174 -8.222,-6.541 z m -8.01,4.776 -2.9,-9.713 8.222,6.539 z m -8.008,4.778 5.32,-3.174 -8.223,-6.538 z m -8.012,4.777 -2.9,-9.713 8.222,6.538 z m -8.009,4.776 5.32,-3.173 -8.22,-6.538 z m -8.011,4.779 -2.9,-9.711 8.221,6.536 z m -8.009,4.774 5.32,-3.172 -8.221,-6.537 z m -8.011,4.778 -2.899,-9.709 8.219,6.536 z m -8.01,4.777 5.319,-3.171 -8.219,-6.537 z m -8.009,4.778 -2.9,-9.71 8.219,6.537 z m -8.011,4.776 5.321,-3.173 -8.22,-6.536 z m -8.009,4.777 -2.901,-9.708 8.219,6.537 z m -8.012,4.776 5.321,-3.171 -8.219,-6.537 z m -8.009,4.778 -2.9,-9.708 8.219,6.537 z m -8.01,4.779 5.32,-3.173 -8.22,-6.535 z m -8.01,4.776 -2.899,-9.708 8.218,6.535 z m -8.009,4.776 5.316,-3.172 -8.216,-6.534 z m -8.012,4.777 -2.898,-9.706 8.218,6.535 z m -8.008,4.778 5.316,-3.171 -8.217,-6.535 z m -8.012,4.778 -2.899,-9.706 8.216,6.534 z m -8.009,4.777 5.316,-3.173 -8.214,-6.531 z m -8.009,4.776 -2.899,-9.706 8.214,6.535 z m -8.013,4.777 5.317,-3.171 -8.214,-6.534 z m -8.01,4.776 -2.898,-9.702 8.215,6.533 z m -8.009,4.778 5.317,-3.171 -8.215,-6.531 z m -8.009,4.779 -2.899,-9.705 8.214,6.532 z m -8.012,4.776 5.316,-3.171 -8.214,-6.532 z m -8.01,4.776 -2.897,-9.702 8.214,6.533 z m -8.01,4.777 5.315,-3.169 -8.212,-6.533 z m -8.009,4.778 -2.899,-9.701 8.213,6.53 z m -8.011,4.774 5.315,-3.169 -8.212,-6.53 z m -8.009,4.78 -2.897,-9.702 8.21,6.532 z m -8.012,4.777 5.314,-3.169 -8.209,-6.53 z m -8.009,4.776 -2.896,-9.699 8.21,6.53 z m -8.011,4.777 5.315,-3.169 -8.212,-6.53 z m -8.011,4.777 -2.895,-9.7 8.21,6.53 z m -8.009,4.777 5.313,-3.168 -8.208,-6.529 z m -8.009,4.778 -2.895,-9.698 8.208,6.53 z m -8.012,4.776 5.314,-3.168 -8.21,-6.529 z m -8.011,4.777 -2.895,-9.696 8.209,6.528 z m -8.009,4.777 5.313,-3.168 -8.208,-6.527 z m -8.009,4.777 -2.895,-9.695 8.208,6.527 z m -8.01,4.777 5.31,-3.167 -8.205,-6.527 z m -8.01,4.777 -2.895,-9.694 8.206,6.526 z m -8.012,4.778 5.314,-3.168 -8.209,-6.527 z m -8.009,4.776 -2.895,-9.694 8.207,6.527 z m -8.009,4.777 5.311,-3.167 -8.206,-6.526 z m -8.011,4.778 -2.893,-9.694 8.204,6.526 z m -8.01,4.777 5.31,-3.167 -8.205,-6.526 z m -8.011,4.777 -2.893,-9.693 8.203,6.526 z m -8.009,4.777 5.31,-3.168 -8.205,-6.525 z m -8.009,4.778 -2.895,-9.693 8.203,6.526 z m -8.013,4.776 5.311,-3.166 -8.206,-6.527 z m -7.565,4.512 -4.375,-10.247 9.241,7.346 z"
           style="fill:#8f96a6;fill-opacity:1;fill-rule:evenodd;stroke:none"
           id="path1600" /><path
           d="m 593.921,425.549 -11.099,4.737 -37.452,-85.421 c -4.44,-10.126 -4.291,-20.942 0.425,-30.943 l 5.324,-11.285 0.42,0.336 -0.224,-0.752 3.627,-7.69 4.606,3.665 -2.455,-8.224 1.673,-3.548 8.794,6.994 -4.368,-14.621 12.378,9.843 -4.367,-14.619 12.377,9.842 -4.368,-14.621 12.377,9.843 -4.732,-15.842 6.098,-3.637 z"
           style="fill:#b7becc;fill-opacity:1;fill-rule:evenodd;stroke:none"
           id="path1602" /><path
           d="M 579.716,423.199 545.37,344.865 c -3.457,-7.883 -4.133,-16.185 -2.036,-24.195 l 34.322,-20.482 7.833,6.229 0.664,114.035 z"
           style="fill:#c8ced9;fill-opacity:1;fill-rule:evenodd;stroke:none"
           id="path1604" /><path
           d="m 582.114,278.959 5.324,-3.174 -8.226,-6.543 z m 8.01,-4.776 -3.267,-10.94 6.098,-3.637 0.074,12.844 z m -18.921,-0.162 8.225,6.541 -5.323,3.173 z m -5.109,14.493 5.324,-3.176 -8.226,-6.541 z m -8.009,4.776 -0.992,-3.318 1.673,-3.548 4.641,3.692 z m -3.559,2.121 0.416,-0.88 0.455,0.362 z"
           style="fill:#717b8f;fill-opacity:1;fill-rule:evenodd;stroke:none"
           id="path1606" /><path
           d="m 655.852,378.268 c -11.44,1.607 -22.115,-6.02 -24.305,-17.363 -5.575,-28.886 -7.495,-57.044 -5.036,-84.329 1.051,-11.664 8.736,-20.998 19.982,-24.267 4.207,-1.224 8.329,-2.138 12.361,-2.721 4.264,-0.617 8.167,0.447 11.526,3.147 3.359,2.7 5.239,6.283 5.554,10.58 2.144,29.331 5.283,59.27 10.466,90.452 1.571,9.446 -4.205,18.461 -13.443,20.98 -5.742,1.568 -11.441,2.728 -17.105,3.521 m -99.431,-38.247 c 12.501,28.509 25,57.018 37.5,85.528 1.532,3.496 5.292,5.336 8.992,4.402 49.656,-12.542 98.511,-26.953 143.67,-50.033 3.556,-1.817 5.966,-4.653 7.186,-8.455 0.684,-2.136 0.887,-4.24 0.609,-6.303 -0.506,-3.752 -3.362,-6.597 -7.116,-7.09 -0.659,-0.085 -1.32,-0.172 -1.978,-0.259 -4.1,-0.538 -7.134,-3.948 -7.189,-8.082 -0.5,-37.292 -7.238,-71.284 -19.498,-102.35 -1.745,-4.419 0.349,-9.434 4.718,-11.299 0.15,-0.062 0.299,-0.127 0.449,-0.19 3.899,-1.665 6.023,-5.757 5.142,-9.904 -0.156,-0.734 -0.312,-1.47 -0.468,-2.205 -1.85,-8.69 -10.248,-14.365 -19,-12.839 -38.634,6.737 -74.555,17.637 -108.678,31.286 -6.425,2.569 -11.084,6.954 -14.036,13.213 -10.006,21.209 -20.011,42.419 -30.016,63.628 -3.23,6.852 -3.328,14.013 -0.287,20.952"
           style="fill:#ff7300;fill-opacity:1;fill-rule:evenodd;stroke:none"
           id="path1608" /><path
           d="m 655.852,378.268 c -11.44,1.607 -22.115,-6.02 -24.305,-17.363 -5.575,-28.886 -7.495,-57.044 -5.036,-84.329 1.051,-11.664 8.736,-20.998 19.982,-24.267 4.207,-1.224 8.329,-2.138 12.361,-2.721 4.264,-0.617 8.167,0.447 11.526,3.147 3.359,2.7 5.239,6.283 5.554,10.58 2.144,29.331 5.283,59.27 10.466,90.452 1.571,9.446 -4.205,18.461 -13.443,20.98 -5.742,1.568 -11.441,2.728 -17.105,3.521 m 96.186,-17.875 c -1.248,-1.242 -2.898,-2.078 -4.776,-2.323 -0.659,-0.085 -1.32,-0.172 -1.978,-0.259 -4.1,-0.538 -7.134,-3.948 -7.189,-8.082 -0.5,-37.292 -7.238,-71.284 -19.498,-102.35 -0.872,-2.209 -0.785,-4.568 0.067,-6.607 -20.105,-10.406 -46.941,-12.764 -75.336,-6.756 -14.061,2.974 -24.309,13.736 -26.591,27.927 -6.828,42.488 -9.489,85.706 -6.54,129.904 0.345,5.164 2.851,9.462 7.177,12.305 4.324,2.846 9.263,3.445 14.143,1.714 34.327,-12.167 67.161,-25.792 97.404,-41.941 7.042,-3.76 14.176,-4.956 22.059,-3.701 0.352,0.057 0.707,0.114 1.058,0.169"
           style="fill:#473422;fill-opacity:1;fill-rule:evenodd;stroke:none"
           id="path1610" /><path
           d="m 655.852,378.268 c -11.44,1.607 -22.115,-6.02 -24.305,-17.363 -5.575,-28.886 -7.495,-57.044 -5.036,-84.329 1.051,-11.664 8.736,-20.998 19.982,-24.267 4.207,-1.224 8.329,-2.138 12.361,-2.721 4.264,-0.617 8.167,0.447 11.526,3.147 3.359,2.7 5.239,6.283 5.554,10.58 2.144,29.331 5.283,59.27 10.466,90.452 1.571,9.446 -4.205,18.461 -13.443,20.98 -5.742,1.568 -11.441,2.728 -17.105,3.521 m 4.086,8.033 c 6.152,-0.863 12.242,-2.118 18.237,-3.754 13.736,-3.747 22.361,-17.207 20.024,-31.254 -4.937,-29.711 -8.171,-59.593 -10.367,-89.622 -0.499,-6.818 -3.603,-12.729 -8.931,-17.011 -5.327,-4.282 -11.767,-6.041 -18.531,-5.061 -4.598,0.667 -9.14,1.693 -13.598,2.989 -14.843,4.316 -25.118,16.796 -26.504,32.19 -2.619,29.055 -0.357,58.274 5.164,86.87 3.093,16.028 18.342,26.921 34.506,24.653"
           style="fill:#382819;fill-opacity:1;fill-rule:evenodd;stroke:none"
           id="path1612" /><path
           d="m 721.259,347.796 c 0.109,3.557 3.079,6.349 6.636,6.238 3.554,-0.11 6.348,-3.08 6.238,-6.637 -0.5,-15.758 -2.385,-32.704 -5.509,-49.653 -3.071,-16.665 -7.326,-33.296 -12.622,-48.762 -1.163,-3.364 -4.834,-5.147 -8.196,-3.982 -3.363,1.161 -5.147,4.831 -3.984,8.193 5.112,14.926 9.208,30.912 12.15,46.883 2.996,16.255 4.806,32.538 5.287,47.72"
           style="fill:#6b543f;fill-opacity:1;fill-rule:evenodd;stroke:none"
           id="path1614" /><path
           d="m 606.886,258.392 c -0.128,0.631 -0.245,1.269 -0.349,1.912 -7.036,43.773 -9.602,87.967 -6.648,132.229 0.433,6.492 3.079,12.32 7.512,16.762 1.989,1.988 2.119,4.863 0.847,6.971 -0.818,1.355 -2.227,2.091 -3.81,1.988 -1.579,-0.104 -2.88,-1.014 -3.516,-2.465 -11.679,-26.639 -23.359,-53.278 -35.039,-79.917 -1.841,-4.2 -1.786,-8.247 0.171,-12.394 10.004,-21.211 20.009,-42.418 30.014,-63.628 1.057,-2.243 2.409,-4.04 4.128,-5.466 1.374,-1.142 3.233,-1.282 4.764,-0.365 1.533,0.918 2.283,2.623 1.926,4.373"
           style="fill:#ff9945;fill-opacity:1;fill-rule:evenodd;stroke:none"
           id="path1616" /><path
           d="m 587.483,294.644 c -0.062,0.309 -0.119,0.62 -0.17,0.935 -3.442,21.401 -4.695,43.009 -3.251,64.652 0.211,3.174 1.506,6.023 3.673,8.194 0.971,0.974 1.036,2.378 0.415,3.409 -0.402,0.662 -1.09,1.022 -1.862,0.971 -0.773,-0.05 -1.41,-0.496 -1.722,-1.203 -5.71,-13.027 -11.42,-26.05 -17.131,-39.077 -0.9,-2.051 -0.873,-4.031 0.084,-6.06 4.891,-10.368 9.784,-20.739 14.673,-31.109 0.518,-1.097 1.18,-1.975 2.019,-2.672 0.673,-0.559 1.581,-0.628 2.331,-0.178 0.749,0.448 1.115,1.282 0.941,2.138"
           style="fill:#ffad69;fill-opacity:1;fill-rule:evenodd;stroke:none"
           id="path1618" /><path
           d="m 558.039,427.796 c -139.457,59.52 -278.915,119.041 -418.374,178.562 -1.707,0.728 -5.6,-0.835 -6.331,-2.542 -2.735,-6.407 -5.472,-12.813 -8.208,-19.22 182.126,-108.689 266.215,-186.074 432.913,-156.8"
           style="fill:#e9ecf2;fill-opacity:1;fill-rule:evenodd;stroke:none"
           id="path1620" /><path
           d="m 386.605,144.124 c 186.545,0 338.694,15.706 338.694,34.961 0,19.259 -152.149,34.964 -338.694,34.964 -186.547,0 -338.695,-15.705 -338.695,-34.964 0,-19.255 152.148,-34.961 338.695,-34.961"
           style="fill:#e6e6e6;fill-opacity:1;fill-rule:evenodd;stroke:none"
           id="path1622" /></g></g></g></svg>
