<?xml version="1.0" encoding="UTF-8" standalone="no"?>
<!-- Created with Inkscape (http://www.inkscape.org/) -->

<svg
   version="1.1"
   id="svg69881"
   xml:space="preserve"
   width="1066.6667"
   height="1066.6667"
   viewBox="0 0 1066.6667 1066.6667"
   sodipodi:docname="pile-of-cash-clip-art-publicdomainvectors.org.svg"
   inkscape:version="1.1.2 (b8e25be833, 2022-02-05)"
   xmlns:inkscape="http://www.inkscape.org/namespaces/inkscape"
   xmlns:sodipodi="http://sodipodi.sourceforge.net/DTD/sodipodi-0.dtd"
   xmlns="http://www.w3.org/2000/svg"
   xmlns:svg="http://www.w3.org/2000/svg"><defs
     id="defs69885"><clipPath
       clipPathUnits="userSpaceOnUse"
       id="clipPath69895"><path
         d="M 0,800 H 800 V 0 H 0 Z"
         id="path69893" /></clipPath></defs><sodipodi:namedview
     id="namedview69883"
     pagecolor="#ffffff"
     bordercolor="#666666"
     borderopacity="1.0"
     inkscape:pageshadow="2"
     inkscape:pageopacity="0.0"
     inkscape:pagecheckerboard="0"
     showgrid="false"
     inkscape:zoom="0.77906244"
     inkscape:cx="533.33337"
     inkscape:cy="533.33337"
     inkscape:window-width="1920"
     inkscape:window-height="1018"
     inkscape:window-x="-8"
     inkscape:window-y="-8"
     inkscape:window-maximized="1"
     inkscape:current-layer="g69887" /><g
     id="g69887"
     inkscape:groupmode="layer"
     inkscape:label="pile-of-cash-clip-art-publicdomainvectors.org"
     transform="matrix(1.3333333,0,0,-1.3333333,0,1066.6667)"><g
       id="g69889"><g
         id="g69891"
         clip-path="url(#clipPath69895)"><path
           d="m 294.399,391.396 h 439.554 c 27.531,0 50.056,-22.525 50.056,-50.056 0,-27.53 -22.525,-50.055 -50.056,-50.055 H 619.61 c 2.122,-6.139 3.281,-12.718 3.281,-19.555 v -0.001 c 0,-33.121 -27.1,-60.221 -60.223,-60.221 H 84.008 c -33.123,0 -60.224,27.1 -60.224,60.221 v 0.001 c 0,33.124 27.101,60.224 60.224,60.224 h 161.227 c -0.583,3.043 -0.892,6.181 -0.892,9.386 0,27.531 22.526,50.056 50.056,50.056"
           style="fill:#495928;fill-opacity:1;fill-rule:evenodd;stroke:none"
           id="path69897" /><path
           d="m 312.183,344.366 h 389.784 v 35.7 H 312.183 Z"
           style="fill:#7da828;fill-opacity:1;fill-rule:evenodd;stroke:none"
           id="path69899" /><path
           d="m 312.184,356.613 c 32.481,-0.19 64.963,-0.38 97.444,-0.571 32.484,-0.19 64.966,-0.38 97.446,-0.57 32.483,0.19 64.965,0.38 97.446,0.57 32.482,0.191 64.965,0.381 97.447,0.571 -32.482,0.191 -64.965,0.382 -97.447,0.572 -32.481,0.19 -64.963,0.38 -97.446,0.57 -32.48,-0.19 -64.962,-0.38 -97.446,-0.57 -32.481,-0.19 -64.963,-0.381 -97.444,-0.572 m 0,4.411 c 32.481,-0.19 64.963,-0.379 97.444,-0.571 32.484,-0.19 64.966,-0.381 97.446,-0.572 32.483,0.191 64.965,0.382 97.446,0.572 32.482,0.192 64.965,0.381 97.447,0.571 -32.482,0.191 -64.965,0.38 -97.447,0.571 -32.481,0.192 -64.963,0.383 -97.446,0.573 -32.48,-0.19 -64.962,-0.381 -97.446,-0.573 -32.481,-0.191 -64.963,-0.38 -97.444,-0.571 m 0,4.411 c 32.481,-0.191 64.963,-0.381 97.444,-0.571 32.484,-0.191 64.966,-0.382 97.446,-0.572 32.483,0.19 64.965,0.381 97.446,0.572 32.482,0.19 64.965,0.38 97.447,0.571 -32.482,0.192 -64.965,0.381 -97.447,0.572 -32.481,0.19 -64.963,0.38 -97.446,0.57 -32.48,-0.19 -64.962,-0.38 -97.446,-0.57 -32.481,-0.191 -64.963,-0.38 -97.444,-0.572 m 0,4.41 c 32.481,-0.19 64.963,-0.38 97.444,-0.572 32.484,-0.189 64.966,-0.379 97.446,-0.57 32.483,0.191 64.965,0.381 97.446,0.57 32.482,0.192 64.965,0.382 97.447,0.572 -32.482,0.19 -64.965,0.381 -97.447,0.57 -32.481,0.193 -64.963,0.383 -97.446,0.573 -32.48,-0.19 -64.962,-0.38 -97.446,-0.573 -32.481,-0.189 -64.963,-0.38 -97.444,-0.57 m -0.001,4.41 97.445,-0.57 97.446,-0.572 97.446,0.572 97.447,0.57 -97.447,0.573 -97.446,0.57 -97.446,-0.57 z m 0,-26.462 97.445,-0.572 97.446,-0.571 97.446,0.571 97.447,0.572 -97.447,0.57 -97.446,0.572 -97.446,-0.572 z m 0.001,4.409 c 32.481,-0.189 64.963,-0.38 97.444,-0.57 32.484,-0.19 64.966,-0.381 97.446,-0.571 32.483,0.19 64.965,0.381 97.446,0.571 32.482,0.19 64.965,0.381 97.447,0.57 -32.482,0.192 -64.965,0.382 -97.447,0.572 -32.481,0.19 -64.963,0.38 -97.446,0.573 -32.48,-0.193 -64.962,-0.383 -97.446,-0.573 -32.481,-0.19 -64.963,-0.38 -97.444,-0.572"
           style="fill:#5b7824;fill-opacity:1;fill-rule:evenodd;stroke:none"
           id="path69901" /><path
           d="m 294.333,415.769 h 389.786 v 35.703 H 294.333 Z"
           style="fill:#7da828;fill-opacity:1;fill-rule:evenodd;stroke:none"
           id="path69903" /><path
           d="m 294.334,428.018 c 32.483,-0.19 64.965,-0.38 97.446,-0.57 32.483,-0.192 64.964,-0.382 97.447,-0.573 32.482,0.191 64.962,0.381 97.445,0.573 32.482,0.19 64.964,0.38 97.447,0.57 -32.483,0.19 -64.965,0.381 -97.447,0.572 -32.483,0.191 -64.963,0.381 -97.445,0.571 -32.483,-0.19 -64.964,-0.38 -97.447,-0.571 -32.481,-0.191 -64.963,-0.382 -97.446,-0.572 m 0,4.411 c 32.483,-0.19 64.965,-0.381 97.446,-0.572 32.483,-0.19 64.964,-0.379 97.447,-0.571 32.482,0.192 64.962,0.381 97.445,0.571 32.482,0.191 64.964,0.382 97.447,0.572 -32.483,0.19 -64.965,0.382 -97.447,0.571 -32.483,0.191 -64.963,0.381 -97.445,0.571 -32.483,-0.19 -64.964,-0.38 -97.447,-0.571 -32.481,-0.189 -64.963,-0.381 -97.446,-0.571 m 0,4.41 c 32.483,-0.19 64.965,-0.381 97.446,-0.57 32.483,-0.19 64.964,-0.382 97.447,-0.572 32.482,0.19 64.962,0.382 97.445,0.572 32.482,0.189 64.964,0.38 97.447,0.57 -32.483,0.191 -64.965,0.381 -97.447,0.573 -32.483,0.19 -64.963,0.38 -97.445,0.57 -32.483,-0.19 -64.964,-0.38 -97.447,-0.57 -32.481,-0.192 -64.963,-0.382 -97.446,-0.573 m 0,4.412 c 32.483,-0.19 64.965,-0.381 97.446,-0.573 32.483,-0.19 64.964,-0.38 97.447,-0.57 32.482,0.19 64.962,0.38 97.445,0.57 32.482,0.192 64.964,0.383 97.447,0.573 -32.483,0.19 -64.965,0.38 -97.447,0.57 -32.483,0.191 -64.963,0.382 -97.445,0.572 -32.483,-0.19 -64.964,-0.381 -97.447,-0.572 -32.481,-0.19 -64.963,-0.38 -97.446,-0.57 m -10e-4,4.41 97.447,-0.572 97.447,-0.571 97.445,0.571 97.447,0.572 -97.447,0.57 -97.445,0.572 -97.447,-0.572 z m 0,-26.465 97.447,-0.57 97.447,-0.572 97.445,0.572 97.447,0.57 -97.447,0.572 -97.445,0.572 -97.447,-0.572 z m 10e-4,4.411 c 32.483,-0.19 64.965,-0.38 97.446,-0.571 32.483,-0.19 64.964,-0.381 97.447,-0.571 32.482,0.19 64.962,0.381 97.445,0.571 32.482,0.191 64.964,0.381 97.447,0.571 -32.483,0.191 -64.965,0.382 -97.447,0.572 -32.483,0.19 -64.963,0.38 -97.445,0.571 -32.483,-0.191 -64.964,-0.381 -97.447,-0.571 -32.481,-0.19 -64.963,-0.381 -97.446,-0.572"
           style="fill:#5b7824;fill-opacity:1;fill-rule:evenodd;stroke:none"
           id="path69905" /><path
           d="m 320.319,380.066 h 389.784 v 35.703 H 320.319 Z"
           style="fill:#6b8f22;fill-opacity:1;fill-rule:evenodd;stroke:none"
           id="path69907" /><path
           d="m 320.32,392.316 c 32.481,-0.19 64.963,-0.379 97.447,-0.573 32.481,-0.189 64.963,-0.38 97.443,-0.57 32.482,0.19 64.965,0.381 97.446,0.57 32.484,0.194 64.966,0.383 97.447,0.573 -32.481,0.191 -64.963,0.38 -97.447,0.572 -32.481,0.19 -64.964,0.381 -97.446,0.57 -32.48,-0.189 -64.962,-0.38 -97.443,-0.57 -32.484,-0.192 -64.966,-0.381 -97.447,-0.572 m 0,4.412 c 32.481,-0.191 64.963,-0.382 97.447,-0.572 32.481,-0.19 64.963,-0.381 97.443,-0.573 32.482,0.192 64.965,0.383 97.446,0.573 32.484,0.19 64.966,0.381 97.447,0.572 -32.481,0.19 -64.963,0.379 -97.447,0.57 -32.481,0.19 -64.964,0.381 -97.446,0.571 -32.48,-0.19 -64.962,-0.381 -97.443,-0.571 -32.484,-0.191 -64.966,-0.38 -97.447,-0.57 m 0,4.409 c 32.481,-0.19 64.963,-0.38 97.447,-0.572 32.481,-0.19 64.963,-0.379 97.443,-0.57 32.482,0.191 64.965,0.38 97.446,0.57 32.484,0.192 64.966,0.382 97.447,0.572 -32.481,0.192 -64.963,0.382 -97.447,0.571 -32.481,0.191 -64.964,0.381 -97.446,0.571 -32.48,-0.19 -64.962,-0.38 -97.443,-0.571 -32.484,-0.189 -64.966,-0.379 -97.447,-0.571 m 0,4.411 c 32.481,-0.19 64.963,-0.38 97.447,-0.571 32.481,-0.19 64.963,-0.381 97.443,-0.571 32.482,0.19 64.965,0.381 97.446,0.571 32.484,0.191 64.966,0.381 97.447,0.571 -32.481,0.19 -64.963,0.38 -97.447,0.571 -32.481,0.191 -64.964,0.381 -97.446,0.571 -32.48,-0.19 -64.962,-0.38 -97.443,-0.571 -32.484,-0.191 -64.966,-0.381 -97.447,-0.571 m -10e-4,4.41 97.447,-0.57 97.444,-0.572 97.446,0.572 97.447,0.57 -97.447,0.571 -97.446,0.571 -97.444,-0.571 z m 0,-26.462 97.447,-0.573 97.444,-0.571 97.446,0.571 97.447,0.573 -97.447,0.57 -97.446,0.572 -97.444,-0.572 z m 10e-4,4.409 c 32.481,-0.191 64.963,-0.38 97.447,-0.571 32.481,-0.189 64.963,-0.382 97.443,-0.571 32.482,0.189 64.965,0.382 97.446,0.571 32.484,0.191 64.966,0.38 97.447,0.571 -32.481,0.192 -64.963,0.382 -97.447,0.572 -32.481,0.19 -64.964,0.38 -97.446,0.57 -32.48,-0.19 -64.962,-0.38 -97.443,-0.57 -32.484,-0.19 -64.966,-0.38 -97.447,-0.572"
           style="fill:#506b1e;fill-opacity:1;fill-rule:evenodd;stroke:none"
           id="path69909" /><path
           d="m 320.319,405.548 h 389.784 v 10.221 H 320.319 Z"
           style="fill:#5c7d1b;fill-opacity:1;fill-rule:evenodd;stroke:none"
           id="path69911" /><path
           d="m 320.319,409.958 97.447,-0.57 97.444,-0.572 97.446,0.572 97.447,0.57 -97.447,0.571 -97.446,0.571 -97.444,-0.571 z m 389.784,-4.41 H 320.32 c 32.481,0.19 64.963,0.38 97.447,0.571 32.481,0.191 64.963,0.381 97.443,0.571 32.482,-0.19 64.965,-0.38 97.446,-0.571 32.484,-0.191 64.966,-0.381 97.447,-0.571"
           style="fill:#476113;fill-opacity:1;fill-rule:evenodd;stroke:none"
           id="path69913" /><path
           d="m 328.422,451.472 h 389.786 v 35.702 H 328.422 Z"
           style="fill:#6b8f22;fill-opacity:1;fill-rule:evenodd;stroke:none"
           id="path69915" /><path
           d="m 328.424,463.721 c 32.482,-0.19 64.963,-0.381 97.447,-0.571 32.481,-0.191 64.963,-0.381 97.443,-0.572 32.482,0.191 64.964,0.381 97.446,0.572 32.483,0.19 64.966,0.381 97.448,0.571 -32.482,0.19 -64.965,0.381 -97.448,0.571 -32.482,0.191 -64.964,0.381 -97.446,0.571 -32.48,-0.19 -64.962,-0.38 -97.443,-0.571 -32.484,-0.19 -64.965,-0.381 -97.447,-0.571 m 0,4.41 c 32.482,-0.19 64.963,-0.381 97.447,-0.57 32.481,-0.192 64.963,-0.382 97.443,-0.573 32.482,0.191 64.964,0.381 97.446,0.573 32.483,0.189 64.966,0.38 97.448,0.57 -32.482,0.191 -64.965,0.381 -97.448,0.572 -32.482,0.191 -64.964,0.381 -97.446,0.571 -32.48,-0.19 -64.962,-0.38 -97.443,-0.571 -32.484,-0.191 -64.965,-0.381 -97.447,-0.572 m 0,4.411 c 32.482,-0.19 64.963,-0.381 97.447,-0.571 32.481,-0.191 64.963,-0.381 97.443,-0.571 32.482,0.19 64.964,0.38 97.446,0.571 32.483,0.19 64.966,0.381 97.448,0.571 -32.482,0.19 -64.965,0.381 -97.448,0.571 -32.482,0.191 -64.964,0.381 -97.446,0.572 -32.48,-0.191 -64.962,-0.381 -97.443,-0.572 -32.484,-0.19 -64.965,-0.381 -97.447,-0.571 m 0,4.412 c 32.482,-0.192 64.963,-0.382 97.447,-0.573 32.481,-0.19 64.963,-0.38 97.443,-0.57 32.482,0.19 64.964,0.38 97.446,0.57 32.483,0.191 64.966,0.381 97.448,0.573 -32.482,0.19 -64.965,0.379 -97.448,0.57 -32.482,0.19 -64.964,0.381 -97.446,0.571 -32.48,-0.19 -64.962,-0.381 -97.443,-0.571 -32.484,-0.191 -64.965,-0.38 -97.447,-0.57 m -0.002,4.409 97.447,-0.571 97.445,-0.572 97.446,0.572 97.448,0.571 -97.448,0.571 -97.446,0.571 -97.445,-0.571 z m 0,-26.464 97.447,-0.571 97.445,-0.572 97.446,0.572 97.448,0.571 -97.448,0.572 -97.446,0.571 -97.445,-0.571 z m 0.002,4.411 c 32.482,-0.191 64.963,-0.381 97.447,-0.572 32.481,-0.19 64.963,-0.38 97.443,-0.571 32.482,0.191 64.964,0.381 97.446,0.571 32.483,0.191 64.966,0.381 97.448,0.572 -32.482,0.191 -64.965,0.381 -97.448,0.572 -32.482,0.19 -64.964,0.38 -97.446,0.57 -32.48,-0.19 -64.962,-0.38 -97.443,-0.57 -32.484,-0.191 -64.965,-0.381 -97.447,-0.572"
           style="fill:#506b1e;fill-opacity:1;fill-rule:evenodd;stroke:none"
           id="path69917" /><path
           d="m 328.422,476.954 h 389.786 v 10.222 H 328.422 Z"
           style="fill:#5c7d1b;fill-opacity:1;fill-rule:evenodd;stroke:none"
           id="path69919" /><path
           d="m 328.422,481.363 97.447,-0.571 97.445,-0.572 97.446,0.572 97.448,0.571 -97.448,0.571 -97.446,0.571 -97.445,-0.571 z m 389.786,-4.409 H 328.424 c 32.482,0.19 64.963,0.379 97.447,0.57 32.481,0.19 64.963,0.381 97.443,0.571 32.482,-0.19 64.964,-0.381 97.446,-0.571 32.483,-0.191 64.966,-0.38 97.448,-0.57"
           style="fill:#476113;fill-opacity:1;fill-rule:evenodd;stroke:none"
           id="path69921" /><path
           d="m 321,487.174 h 389.785 v 35.703 H 321 Z"
           style="fill:#7da828;fill-opacity:1;fill-rule:evenodd;stroke:none"
           id="path69923" /><path
           d="m 321,499.423 c 32.482,-0.19 64.964,-0.381 97.446,-0.572 32.483,-0.19 64.964,-0.38 97.447,-0.571 32.48,0.191 64.962,0.381 97.445,0.571 32.481,0.191 64.964,0.382 97.446,0.572 -32.482,0.191 -64.965,0.381 -97.446,0.572 -32.483,0.19 -64.965,0.381 -97.445,0.571 -32.483,-0.19 -64.964,-0.381 -97.447,-0.571 -32.482,-0.191 -64.964,-0.381 -97.446,-0.572 m 0,4.411 c 32.482,-0.19 64.964,-0.381 97.446,-0.572 32.483,-0.19 64.964,-0.38 97.447,-0.571 32.48,0.191 64.962,0.381 97.445,0.571 32.481,0.191 64.964,0.382 97.446,0.572 -32.482,0.19 -64.965,0.38 -97.446,0.571 -32.483,0.191 -64.965,0.381 -97.445,0.572 -32.483,-0.191 -64.964,-0.381 -97.447,-0.572 -32.482,-0.191 -64.964,-0.381 -97.446,-0.571 m 0,4.41 c 32.482,-0.19 64.964,-0.381 97.446,-0.571 32.483,-0.191 64.964,-0.381 97.447,-0.57 32.48,0.189 64.962,0.379 97.445,0.57 32.481,0.19 64.964,0.381 97.446,0.571 -32.482,0.192 -64.965,0.381 -97.446,0.572 -32.483,0.19 -64.965,0.381 -97.445,0.571 -32.483,-0.19 -64.964,-0.381 -97.447,-0.571 -32.482,-0.191 -64.964,-0.38 -97.446,-0.572 m 0,4.411 c 32.482,-0.191 64.964,-0.381 97.446,-0.572 32.483,-0.189 64.964,-0.38 97.447,-0.572 32.48,0.192 64.962,0.383 97.445,0.572 32.481,0.191 64.964,0.381 97.446,0.572 -32.482,0.191 -64.965,0.381 -97.446,0.571 -32.483,0.191 -64.965,0.381 -97.445,0.572 -32.483,-0.191 -64.964,-0.381 -97.447,-0.572 -32.482,-0.19 -64.964,-0.38 -97.446,-0.571 m 0,4.41 97.446,-0.572 97.447,-0.571 97.445,0.571 97.446,0.572 -97.446,0.572 -97.445,0.571 -97.447,-0.571 z m 0,-26.464 97.446,-0.571 97.447,-0.571 97.445,0.571 97.446,0.571 -97.446,0.572 -97.445,0.571 -97.447,-0.571 z m 0,4.412 c 32.482,-0.191 64.964,-0.381 97.446,-0.572 32.483,-0.191 64.964,-0.381 97.447,-0.571 32.48,0.19 64.962,0.38 97.445,0.571 32.481,0.191 64.964,0.381 97.446,0.572 -32.482,0.19 -64.965,0.381 -97.446,0.57 -32.483,0.191 -64.965,0.381 -97.445,0.571 -32.483,-0.19 -64.964,-0.38 -97.447,-0.571 -32.482,-0.189 -64.964,-0.38 -97.446,-0.57"
           style="fill:#5b7824;fill-opacity:1;fill-rule:evenodd;stroke:none"
           id="path69925" /><path
           d="m 341.3,522.877 h 389.783 v 35.702 H 341.3 Z"
           style="fill:#6b8f22;fill-opacity:1;fill-rule:evenodd;stroke:none"
           id="path69927" /><path
           d="m 341.3,535.126 c 32.482,-0.191 64.964,-0.381 97.447,-0.572 32.482,-0.19 64.964,-0.38 97.445,-0.572 32.481,0.192 64.964,0.382 97.446,0.572 32.481,0.191 64.964,0.382 97.445,0.572 -32.481,0.19 -64.964,0.38 -97.445,0.57 -32.482,0.192 -64.965,0.382 -97.446,0.573 -32.481,-0.191 -64.963,-0.381 -97.445,-0.573 -32.483,-0.19 -64.965,-0.38 -97.447,-0.57 m 0,4.41 c 32.482,-0.19 64.964,-0.38 97.447,-0.571 32.482,-0.191 64.964,-0.381 97.445,-0.571 32.481,0.19 64.964,0.38 97.446,0.571 32.481,0.19 64.964,0.381 97.445,0.571 -32.481,0.19 -64.964,0.381 -97.445,0.57 -32.482,0.192 -64.965,0.382 -97.446,0.573 -32.481,-0.191 -64.963,-0.381 -97.445,-0.573 -32.483,-0.189 -64.965,-0.38 -97.447,-0.57 m 0,4.411 c 32.482,-0.191 64.964,-0.381 97.447,-0.572 32.482,-0.19 64.964,-0.38 97.445,-0.571 32.481,0.191 64.964,0.381 97.446,0.571 32.481,0.191 64.964,0.381 97.445,0.572 -32.481,0.19 -64.964,0.381 -97.445,0.571 -32.482,0.19 -64.965,0.381 -97.446,0.571 -32.481,-0.19 -64.963,-0.381 -97.445,-0.571 -32.483,-0.19 -64.965,-0.381 -97.447,-0.571 m 0,4.41 c 32.482,-0.19 64.964,-0.379 97.447,-0.571 32.482,-0.19 64.964,-0.381 97.445,-0.572 32.481,0.191 64.964,0.382 97.446,0.572 32.481,0.192 64.964,0.381 97.445,0.571 -32.481,0.191 -64.964,0.381 -97.445,0.572 -32.482,0.19 -64.965,0.381 -97.446,0.571 -32.481,-0.19 -64.963,-0.381 -97.445,-0.571 -32.483,-0.191 -64.965,-0.381 -97.447,-0.572 m 0,4.411 97.447,-0.572 97.445,-0.571 97.446,0.571 97.445,0.572 -97.445,0.57 -97.446,0.572 -97.445,-0.572 z m 0,-26.464 97.447,-0.572 97.445,-0.571 97.446,0.571 97.445,0.572 -97.445,0.571 -97.446,0.571 -97.445,-0.571 z m 0,4.411 c 32.482,-0.19 64.964,-0.381 97.447,-0.571 32.482,-0.191 64.964,-0.382 97.445,-0.572 32.481,0.19 64.964,0.381 97.446,0.572 32.481,0.19 64.964,0.381 97.448,0.571 -32.484,0.191 -64.967,0.381 -97.448,0.571 -32.482,0.191 -64.965,0.381 -97.446,0.571 -32.481,-0.19 -64.963,-0.38 -97.445,-0.571 -32.483,-0.19 -64.965,-0.38 -97.447,-0.571"
           style="fill:#506b1e;fill-opacity:1;fill-rule:evenodd;stroke:none"
           id="path69929" /><path
           d="M 341.3,558.579 H 731.083 V 548.357 H 341.3 Z"
           style="fill:#5c7d1b;fill-opacity:1;fill-rule:evenodd;stroke:none"
           id="path69931" /><path
           d="m 341.3,552.768 97.447,-0.572 97.445,-0.571 97.446,0.571 97.445,0.572 -97.445,0.57 -97.446,0.572 -97.445,-0.572 z m 389.783,-4.411 H 341.3 c 32.482,0.191 64.964,0.381 97.447,0.572 32.482,0.19 64.964,0.381 97.445,0.571 32.481,-0.19 64.964,-0.381 97.446,-0.571 32.481,-0.191 64.964,-0.381 97.445,-0.572"
           style="fill:#476113;fill-opacity:1;fill-rule:evenodd;stroke:none"
           id="path69933" /><path
           d="m 310.618,558.579 h 389.784 v 35.703 H 310.618 Z"
           style="fill:#7da828;fill-opacity:1;fill-rule:evenodd;stroke:none"
           id="path69935" /><path
           d="m 310.618,570.828 c 32.483,-0.191 64.965,-0.381 97.445,-0.571 32.483,-0.191 64.965,-0.381 97.447,-0.571 32.482,0.19 64.963,0.38 97.445,0.571 32.483,0.19 64.964,0.38 97.447,0.571 -32.483,0.191 -64.964,0.381 -97.447,0.571 -32.482,0.191 -64.963,0.381 -97.445,0.572 -32.482,-0.191 -64.964,-0.381 -97.447,-0.572 -32.48,-0.19 -64.962,-0.38 -97.445,-0.571 m 0,4.41 c 32.483,-0.19 64.965,-0.38 97.445,-0.571 32.483,-0.19 64.965,-0.381 97.447,-0.571 32.482,0.19 64.963,0.381 97.445,0.571 32.483,0.191 64.964,0.381 97.447,0.571 -32.483,0.191 -64.964,0.381 -97.447,0.572 -32.482,0.19 -64.963,0.38 -97.445,0.571 -32.482,-0.191 -64.964,-0.381 -97.447,-0.571 -32.48,-0.191 -64.962,-0.381 -97.445,-0.572 m 0,4.411 c 32.483,-0.191 64.965,-0.381 97.445,-0.572 32.483,-0.19 64.965,-0.381 97.447,-0.571 32.482,0.19 64.963,0.381 97.445,0.571 32.483,0.191 64.964,0.381 97.447,0.572 -32.483,0.191 -64.964,0.381 -97.447,0.572 -32.482,0.19 -64.963,0.38 -97.445,0.571 -32.482,-0.191 -64.964,-0.381 -97.447,-0.571 -32.48,-0.191 -64.962,-0.381 -97.445,-0.572 m 0,4.411 c 32.483,-0.19 64.965,-0.381 97.445,-0.571 32.485,-0.191 64.965,-0.382 97.447,-0.572 32.482,0.19 64.963,0.381 97.445,0.572 32.483,0.19 64.964,0.381 97.447,0.571 -32.483,0.19 -64.964,0.381 -97.447,0.571 -32.482,0.191 -64.963,0.381 -97.445,0.572 -32.482,-0.191 -64.964,-0.381 -97.447,-0.572 -32.48,-0.19 -64.962,-0.381 -97.445,-0.571 m 0,4.41 97.445,-0.572 97.447,-0.571 97.445,0.571 97.447,0.572 -97.447,0.571 -97.445,0.572 -97.447,-0.572 z m 0,-26.464 97.445,-0.571 97.447,-0.571 97.445,0.571 97.447,0.571 -97.447,0.572 -97.445,0.57 -97.447,-0.57 z m 0,4.411 c 32.483,-0.19 64.965,-0.381 97.445,-0.572 32.483,-0.19 64.965,-0.38 97.447,-0.571 32.482,0.191 64.963,0.381 97.445,0.571 32.483,0.191 64.964,0.382 97.447,0.572 -32.483,0.191 -64.964,0.381 -97.447,0.571 -32.482,0.192 -64.963,0.382 -97.445,0.572 -32.482,-0.19 -64.964,-0.38 -97.447,-0.572 -32.48,-0.19 -64.962,-0.38 -97.445,-0.571"
           style="fill:#5b7824;fill-opacity:1;fill-rule:evenodd;stroke:none"
           id="path69937" /><path
           d="m 550.447,344.366 h 2.306 v 35.7 h -2.306 z"
           style="fill:#7da828;fill-opacity:1;fill-rule:evenodd;stroke:none"
           id="path69939" /><path
           d="m 552.753,348.667 v -1.749 l -2.306,-0.015 v 1.777 z m 0,8.821 v -1.75 l -2.306,-0.011 v 1.776 z m 0,4.411 v -1.75 l -2.306,-0.013 v 1.777 z m 0,4.41 v -1.749 l -2.306,-0.013 v 1.777 z m 0,4.412 v -1.75 l -2.306,-0.013 v 1.776 z m 0,4.409 v -1.75 l -2.306,-0.012 v 1.777 z m -2.306,-23.816 2.306,0.014 v 1.75 l -2.306,0.014 z"
           style="fill:#5b7824;fill-opacity:1;fill-rule:evenodd;stroke:none"
           id="path69941" /><path
           d="m 463.25,344.366 h 87.197 v 35.702 H 463.25 Z"
           style="fill:#fff8de;fill-opacity:1;fill-rule:evenodd;stroke:none"
           id="path69943" /><path
           d="m 473.566,344.366 h 14.47 v 35.702 h -14.47 z"
           style="fill:#ff5e52;fill-opacity:1;fill-rule:evenodd;stroke:none"
           id="path69945" /><path
           d="m 499.84,380.068 h 14.471 V 344.366 H 499.84 Z"
           style="fill:#ff5e52;fill-opacity:1;fill-rule:evenodd;stroke:none"
           id="path69947" /><path
           d="m 526.113,344.366 h 14.47 v 35.702 h -14.47 z"
           style="fill:#ff5e52;fill-opacity:1;fill-rule:evenodd;stroke:none"
           id="path69949" /><path
           d="m 550.447,344.366 h 2.306 v 35.702 h -2.306 z"
           style="fill:#6d961c;fill-opacity:1;fill-rule:evenodd;stroke:none"
           id="path69951" /><path
           d="m 552.753,348.667 v -1.749 l -2.306,-0.015 v 1.777 z m 0,8.821 v -1.75 l -2.306,-0.011 v 1.776 z m 0,4.411 v -1.75 l -2.306,-0.013 v 1.777 z m 0,4.41 v -1.749 l -2.306,-0.013 v 1.777 z m 0,4.412 v -1.75 l -2.306,-0.013 v 1.776 z m 0,4.409 v -1.75 l -2.306,-0.012 v 1.777 z m -2.306,-23.816 2.306,0.014 v 1.75 l -2.306,0.014 z"
           style="fill:#4e691b;fill-opacity:1;fill-rule:evenodd;stroke:none"
           id="path69953" /><path
           d="m 460.946,344.366 h 2.304 v 35.702 h -2.304 z"
           style="fill:#6d961c;fill-opacity:1;fill-rule:evenodd;stroke:none"
           id="path69955" /><path
           d="m 460.946,348.667 v -1.749 l 2.304,-0.015 v 1.777 z m 0,8.821 v -1.75 l 2.304,-0.011 v 1.776 z m 0,4.411 v -1.75 l 2.304,-0.013 v 1.777 z m 0,4.41 v -1.749 l 2.304,-0.013 v 1.777 z m 0,4.412 v -1.75 l 2.304,-0.013 v 1.776 z m 0,4.409 v -1.75 l 2.304,-0.012 v 1.777 z m 2.304,-23.816 -2.304,0.014 v 1.75 l 2.304,0.014 z"
           style="fill:#4e691b;fill-opacity:1;fill-rule:evenodd;stroke:none"
           id="path69957" /><path
           d="m 532.825,415.769 h 2.304 v 35.703 h -2.304 z"
           style="fill:#7da828;fill-opacity:1;fill-rule:evenodd;stroke:none"
           id="path69959" /><path
           d="m 535.129,420.072 v -1.751 l -2.304,-0.013 v 1.778 z m 0,8.821 v -1.749 l -2.304,-0.014 v 1.777 z m 0,4.411 v -1.75 l -2.304,-0.013 v 1.776 z m 0,4.411 v -1.751 l -2.304,-0.013 v 1.778 z m 0,4.411 v -1.75 l -2.304,-0.013 v 1.777 z m 0,4.41 v -1.75 l -2.304,-0.015 v 1.778 z m -2.304,-23.816 2.304,0.012 v 1.751 l -2.304,0.014 z"
           style="fill:#5b7824;fill-opacity:1;fill-rule:evenodd;stroke:none"
           id="path69961" /><path
           d="m 445.628,415.769 h 87.197 v 35.703 h -87.197 z"
           style="fill:#fff8de;fill-opacity:1;fill-rule:evenodd;stroke:none"
           id="path69963" /><path
           d="m 455.943,415.769 h 14.47 v 35.703 h -14.47 z"
           style="fill:#ff5e52;fill-opacity:1;fill-rule:evenodd;stroke:none"
           id="path69965" /><path
           d="m 482.216,451.474 h 14.471 v -35.703 h -14.471 z"
           style="fill:#ff5e52;fill-opacity:1;fill-rule:evenodd;stroke:none"
           id="path69967" /><path
           d="m 508.49,415.769 h 14.47 v 35.703 h -14.47 z"
           style="fill:#ff5e52;fill-opacity:1;fill-rule:evenodd;stroke:none"
           id="path69969" /><path
           d="m 532.825,415.769 h 2.304 v 35.703 h -2.304 z"
           style="fill:#6d961c;fill-opacity:1;fill-rule:evenodd;stroke:none"
           id="path69971" /><path
           d="m 535.129,420.072 v -1.751 l -2.304,-0.013 v 1.778 z m 0,8.821 v -1.749 l -2.304,-0.014 v 1.777 z m 0,4.411 v -1.75 l -2.304,-0.013 v 1.776 z m 0,4.411 v -1.751 l -2.304,-0.013 v 1.778 z m 0,4.411 v -1.75 l -2.304,-0.013 v 1.777 z m 0,4.41 v -1.75 l -2.304,-0.015 v 1.778 z m -2.304,-23.816 2.304,0.012 v 1.751 l -2.304,0.014 z"
           style="fill:#4e691b;fill-opacity:1;fill-rule:evenodd;stroke:none"
           id="path69973" /><path
           d="m 443.322,415.769 h 2.306 v 35.703 h -2.306 z"
           style="fill:#6d961c;fill-opacity:1;fill-rule:evenodd;stroke:none"
           id="path69975" /><path
           d="m 443.322,420.072 v -1.751 l 2.306,-0.013 v 1.778 z m 0,8.821 v -1.749 l 2.306,-0.014 v 1.777 z m 0,4.411 v -1.75 l 2.306,-0.013 v 1.776 z m 0,4.411 v -1.751 l 2.306,-0.013 v 1.778 z m 0,4.411 v -1.75 l 2.306,-0.013 v 1.777 z m 0,4.41 v -1.75 l 2.306,-0.015 v 1.778 z m 2.306,-23.816 -2.306,0.012 v 1.751 l 2.306,0.014 z"
           style="fill:#4e691b;fill-opacity:1;fill-rule:evenodd;stroke:none"
           id="path69977" /><path
           d="m 559.266,487.174 h 2.304 v 35.703 h -2.304 z"
           style="fill:#7da828;fill-opacity:1;fill-rule:evenodd;stroke:none"
           id="path69979" /><path
           d="m 561.569,491.476 v -1.75 l -2.303,-0.014 v 1.777 z m 0,8.821 v -1.749 l -2.303,-0.014 v 1.777 z m 0,4.411 v -1.75 l -2.303,-0.013 v 1.777 z m 0,4.41 v -1.749 l -2.303,-0.014 v 1.777 z m 0,4.412 v -1.75 l -2.303,-0.014 v 1.777 z m 0,4.409 v -1.75 l -2.303,-0.013 v 1.777 z m -2.303,-23.815 2.303,0.013 v 1.75 l -2.303,0.013 z"
           style="fill:#5b7824;fill-opacity:1;fill-rule:evenodd;stroke:none"
           id="path69981" /><path
           d="m 472.068,487.174 h 87.197 v 35.703 h -87.197 z"
           style="fill:#fff8de;fill-opacity:1;fill-rule:evenodd;stroke:none"
           id="path69983" /><path
           d="m 482.383,487.174 h 14.47 v 35.703 h -14.47 z"
           style="fill:#ff5e52;fill-opacity:1;fill-rule:evenodd;stroke:none"
           id="path69985" /><path
           d="m 508.657,522.877 h 14.469 v -35.704 h -14.469 z"
           style="fill:#ff5e52;fill-opacity:1;fill-rule:evenodd;stroke:none"
           id="path69987" /><path
           d="m 534.929,487.174 h 14.47 v 35.703 h -14.47 z"
           style="fill:#ff5e52;fill-opacity:1;fill-rule:evenodd;stroke:none"
           id="path69989" /><path
           d="m 559.266,487.174 h 2.304 v 35.703 h -2.304 z"
           style="fill:#6d961c;fill-opacity:1;fill-rule:evenodd;stroke:none"
           id="path69991" /><path
           d="m 561.569,491.476 v -1.75 l -2.303,-0.014 v 1.777 z m 0,8.821 v -1.749 l -2.303,-0.014 v 1.777 z m 0,4.411 v -1.75 l -2.303,-0.013 v 1.777 z m 0,4.41 v -1.749 l -2.303,-0.014 v 1.777 z m 0,4.412 v -1.75 l -2.303,-0.014 v 1.777 z m 0,4.409 v -1.75 l -2.303,-0.013 v 1.777 z m -2.303,-23.815 2.303,0.013 v 1.75 l -2.303,0.013 z"
           style="fill:#4e691b;fill-opacity:1;fill-rule:evenodd;stroke:none"
           id="path69993" /><path
           d="m 469.762,487.174 h 2.307 v 35.703 h -2.307 z"
           style="fill:#6d961c;fill-opacity:1;fill-rule:evenodd;stroke:none"
           id="path69995" /><path
           d="m 469.762,491.476 v -1.75 l 2.306,-0.014 v 1.777 z m 0,8.821 v -1.749 l 2.306,-0.014 v 1.777 z m 0,4.411 v -1.75 l 2.306,-0.013 v 1.777 z m 0,4.41 v -1.749 l 2.306,-0.014 v 1.777 z m 0,4.412 v -1.75 l 2.306,-0.014 v 1.777 z m 0,4.409 v -1.75 l 2.306,-0.013 v 1.777 z m 2.306,-23.815 -2.306,0.013 v 1.75 l 2.306,0.013 z"
           style="fill:#4e691b;fill-opacity:1;fill-rule:evenodd;stroke:none"
           id="path69997" /><path
           d="m 548.886,558.579 h 2.304 v 35.702 h -2.304 z"
           style="fill:#7da828;fill-opacity:1;fill-rule:evenodd;stroke:none"
           id="path69999" /><path
           d="m 551.189,562.881 v -1.751 l -2.303,-0.013 v 1.778 z m 0,8.821 v -1.749 l -2.303,-0.014 v 1.777 z m 0,4.411 v -1.75 l -2.303,-0.013 v 1.777 z m 0,4.41 v -1.75 l -2.303,-0.013 v 1.777 z m 0,4.412 v -1.751 l -2.303,-0.014 v 1.778 z m 0,4.409 v -1.749 l -2.303,-0.014 v 1.776 z m -2.303,-23.816 2.303,0.014 v 1.75 l -2.303,0.013 z"
           style="fill:#5b7824;fill-opacity:1;fill-rule:evenodd;stroke:none"
           id="path70001" /><path
           d="m 461.686,558.579 h 87.2 v 35.703 h -87.2 z"
           style="fill:#fff8de;fill-opacity:1;fill-rule:evenodd;stroke:none"
           id="path70003" /><path
           d="m 472.002,558.579 h 14.47 v 35.703 h -14.47 z"
           style="fill:#ff5e52;fill-opacity:1;fill-rule:evenodd;stroke:none"
           id="path70005" /><path
           d="m 498.275,594.282 h 14.47 v -35.703 h -14.47 z"
           style="fill:#ff5e52;fill-opacity:1;fill-rule:evenodd;stroke:none"
           id="path70007" /><path
           d="m 524.549,558.579 h 14.47 v 35.703 h -14.47 z"
           style="fill:#ff5e52;fill-opacity:1;fill-rule:evenodd;stroke:none"
           id="path70009" /><path
           d="m 548.886,558.579 h 2.304 v 35.703 h -2.304 z"
           style="fill:#6d961c;fill-opacity:1;fill-rule:evenodd;stroke:none"
           id="path70011" /><path
           d="m 551.189,562.881 v -1.751 l -2.303,-0.013 v 1.778 z m 0,8.821 v -1.749 l -2.303,-0.014 v 1.777 z m 0,4.411 v -1.75 l -2.303,-0.013 v 1.777 z m 0,4.41 v -1.75 l -2.303,-0.013 v 1.777 z m 0,4.412 v -1.751 l -2.303,-0.014 v 1.778 z m 0,4.409 v -1.749 l -2.303,-0.014 v 1.776 z m -2.303,-23.816 2.303,0.014 v 1.75 l -2.303,0.013 z"
           style="fill:#4e691b;fill-opacity:1;fill-rule:evenodd;stroke:none"
           id="path70013" /><path
           d="m 459.382,558.579 h 2.304 v 35.703 h -2.304 z"
           style="fill:#6d961c;fill-opacity:1;fill-rule:evenodd;stroke:none"
           id="path70015" /><path
           d="m 459.382,562.881 v -1.751 l 2.304,-0.013 v 1.778 z m 0,8.821 v -1.749 l 2.304,-0.014 v 1.777 z m 0,4.411 v -1.75 l 2.304,-0.013 v 1.777 z m 0,4.41 v -1.75 l 2.304,-0.013 v 1.777 z m 0,4.412 v -1.751 l 2.304,-0.014 v 1.778 z m 0,4.409 v -1.749 l 2.304,-0.014 v 1.776 z m 2.304,-23.816 -2.304,0.014 v 1.75 l 2.304,0.013 z"
           style="fill:#4e691b;fill-opacity:1;fill-rule:evenodd;stroke:none"
           id="path70017" /><path
           d="m 471.612,380.068 h 87.197 v 35.702 h -87.197 z"
           style="fill:#f0e8c9;fill-opacity:1;fill-rule:evenodd;stroke:none"
           id="path70019" /><path
           d="m 558.81,405.548 h -87.197 v 10.221 h 87.197 z"
           style="fill:#e6ddbb;fill-opacity:1;fill-rule:evenodd;stroke:none"
           id="path70021" /><path
           d="m 534.475,415.771 h 14.469 v -35.702 h -14.469 z m -52.547,0 h 14.469 v -35.702 h -14.469 z m 26.274,0 h 14.47 v -35.702 h -14.47 z"
           style="fill:#e04136;fill-opacity:1;fill-rule:evenodd;stroke:none"
           id="path70023" /><path
           d="m 534.475,415.769 h 14.469 v -10.221 h -14.469 z m -52.547,0 h 14.469 v -10.221 h -14.469 z m 40.744,-10.221 h -14.47 v 10.221 h 14.47 z"
           style="fill:#d1392e;fill-opacity:1;fill-rule:evenodd;stroke:none"
           id="path70025" /><path
           d="m 561.114,384.37 v -1.749 l -2.304,-0.015 v 1.777 z m 0,8.822 v -1.751 l -2.304,-0.013 v 1.777 z m 0,4.411 v -1.75 l -2.304,-0.015 v 1.776 z m 0,4.409 v -1.75 l -2.304,-0.013 v 1.778 z m 0,4.411 v -1.75 l -2.304,-0.012 v 1.777 z m 0,4.41 v -1.75 l -2.304,-0.012 v 1.777 z m -2.304,-23.816 2.304,0.015 v 1.749 l -2.304,0.013 z"
           style="fill:#5b7824;fill-opacity:1;fill-rule:evenodd;stroke:none"
           id="path70027" /><path
           d="m 558.81,380.068 h 2.305 v 35.702 h -2.305 z"
           style="fill:#5c7d1b;fill-opacity:1;fill-rule:evenodd;stroke:none"
           id="path70029" /><path
           d="m 561.114,384.37 v -1.749 l -2.304,-0.015 v 1.777 z m 0,8.822 v -1.751 l -2.304,-0.013 v 1.777 z m 0,4.411 v -1.75 l -2.304,-0.015 v 1.776 z m 0,4.409 v -1.75 l -2.304,-0.013 v 1.778 z m 0,4.411 v -1.75 l -2.304,-0.012 v 1.777 z m 0,4.41 v -1.75 l -2.304,-0.012 v 1.777 z m -2.304,-23.816 2.304,0.015 v 1.749 l -2.304,0.013 z"
           style="fill:#4e691b;fill-opacity:1;fill-rule:evenodd;stroke:none"
           id="path70031" /><path
           d="m 558.81,415.769 h 2.305 v -10.221 h -2.305 z"
           style="fill:#425917;fill-opacity:1;fill-rule:evenodd;stroke:none"
           id="path70033" /><path
           d="m 561.114,384.368 v -1.747 l -2.304,-0.014 v 1.775 z m 0,8.82 v -1.745 l -2.304,-0.015 v 1.775 z m 0,4.413 v -1.748 l -2.304,-0.014 v 1.774 z m 0,4.41 v -1.747 l -2.304,-0.013 v 1.773 z m 0,4.411 v -1.747 l -2.304,-0.014 v 1.776 z m 0,4.41 v -1.748 l -2.304,-0.012 v 1.772 z m -2.304,-23.813 2.304,0.013 v 1.745 l -2.304,0.016 z"
           style="fill:#425917;fill-opacity:1;fill-rule:evenodd;stroke:none"
           id="path70035" /><path
           d="m 561.114,410.832 v -1.748 l -2.304,-0.012 v 1.772 z m 0,-5.284 h -2.304 v 0.889 l 2.304,-0.015 z"
           style="fill:#354a0c;fill-opacity:1;fill-rule:evenodd;stroke:none"
           id="path70037" /><path
           d="m 469.309,384.37 v -1.749 l 2.303,-0.015 v 1.777 z m 0,8.822 v -1.751 l 2.303,-0.013 v 1.777 z m 0,4.411 v -1.75 l 2.303,-0.015 v 1.776 z m 0,4.409 v -1.75 l 2.303,-0.013 v 1.778 z m 0,4.411 v -1.75 l 2.303,-0.012 v 1.777 z m 0,4.41 v -1.75 l 2.303,-0.012 v 1.777 z m 2.303,-23.816 -2.303,0.015 v 1.749 l 2.303,0.013 z"
           style="fill:#5b7824;fill-opacity:1;fill-rule:evenodd;stroke:none"
           id="path70039" /><path
           d="m 469.309,380.068 h 2.304 v 35.702 h -2.304 z"
           style="fill:#5c7d1b;fill-opacity:1;fill-rule:evenodd;stroke:none"
           id="path70041" /><path
           d="m 469.309,384.37 v -1.749 l 2.303,-0.015 v 1.777 z m 0,8.822 v -1.751 l 2.303,-0.013 v 1.777 z m 0,4.411 v -1.75 l 2.303,-0.015 v 1.776 z m 0,4.409 v -1.75 l 2.303,-0.013 v 1.778 z m 0,4.411 v -1.75 l 2.303,-0.012 v 1.777 z m 0,4.41 v -1.75 l 2.303,-0.012 v 1.777 z m 2.303,-23.816 -2.303,0.015 v 1.749 l 2.303,0.013 z"
           style="fill:#4e691b;fill-opacity:1;fill-rule:evenodd;stroke:none"
           id="path70043" /><path
           d="m 471.612,415.769 h -2.304 v -10.221 h 2.304 z"
           style="fill:#425917;fill-opacity:1;fill-rule:evenodd;stroke:none"
           id="path70045" /><path
           d="m 469.309,384.368 v -1.747 l 2.303,-0.014 v 1.775 z m 0,8.82 v -1.745 l 2.303,-0.015 v 1.775 z m 0,4.413 v -1.748 l 2.303,-0.014 v 1.774 z m 0,4.41 v -1.747 l 2.303,-0.013 v 1.773 z m 0,4.411 v -1.747 l 2.303,-0.014 v 1.776 z m 0,4.41 v -1.748 l 2.303,-0.012 v 1.772 z m 2.303,-23.813 -2.303,0.013 v 1.745 l 2.303,0.016 z"
           style="fill:#425917;fill-opacity:1;fill-rule:evenodd;stroke:none"
           id="path70047" /><path
           d="m 469.309,410.832 v -1.748 l 2.303,-0.012 v 1.772 z m 0,-5.284 h 2.303 v 0.889 l -2.303,-0.015 z"
           style="fill:#354a0c;fill-opacity:1;fill-rule:evenodd;stroke:none"
           id="path70049" /><path
           d="m 479.716,451.472 h 87.197 v 35.704 h -87.197 z"
           style="fill:#f0e8c9;fill-opacity:1;fill-rule:evenodd;stroke:none"
           id="path70051" /><path
           d="m 566.913,476.952 h -87.197 v 10.222 h 87.197 z"
           style="fill:#e6ddbb;fill-opacity:1;fill-rule:evenodd;stroke:none"
           id="path70053" /><path
           d="m 542.578,487.175 h 14.471 v -35.704 h -14.471 z m -52.547,0 h 14.471 v -35.704 h -14.471 z m 26.275,0 h 14.47 v -35.703 h -14.47 z"
           style="fill:#e04136;fill-opacity:1;fill-rule:evenodd;stroke:none"
           id="path70055" /><path
           d="m 542.578,487.174 h 14.471 v -10.222 h -14.471 z m -52.547,0 h 14.471 v -10.222 h -14.471 z m 40.744,-10.222 h -14.47 v 10.222 h 14.47 z"
           style="fill:#d1392e;fill-opacity:1;fill-rule:evenodd;stroke:none"
           id="path70057" /><path
           d="m 569.218,455.774 v -1.75 l -2.305,-0.013 v 1.777 z m 0,8.822 v -1.75 l -2.305,-0.013 v 1.776 z m 0,4.41 v -1.749 l -2.305,-0.014 v 1.777 z m 0,4.411 v -1.75 l -2.305,-0.014 v 1.777 z m 0,4.411 v -1.75 l -2.305,-0.014 v 1.778 z m 0,4.409 v -1.749 l -2.305,-0.014 v 1.776 z m -2.305,-23.816 2.305,0.014 v 1.75 l -2.305,0.014 z"
           style="fill:#5b7824;fill-opacity:1;fill-rule:evenodd;stroke:none"
           id="path70059" /><path
           d="m 566.913,451.472 h 2.305 v 35.704 h -2.305 z"
           style="fill:#5c7d1b;fill-opacity:1;fill-rule:evenodd;stroke:none"
           id="path70061" /><path
           d="m 569.218,455.774 v -1.75 l -2.305,-0.013 v 1.777 z m 0,8.822 v -1.75 l -2.305,-0.013 v 1.776 z m 0,4.41 v -1.749 l -2.305,-0.014 v 1.777 z m 0,4.411 v -1.75 l -2.305,-0.014 v 1.777 z m 0,4.411 v -1.75 l -2.305,-0.014 v 1.778 z m 0,4.409 v -1.749 l -2.305,-0.014 v 1.776 z m -2.305,-23.816 2.305,0.014 v 1.75 l -2.305,0.014 z"
           style="fill:#4e691b;fill-opacity:1;fill-rule:evenodd;stroke:none"
           id="path70063" /><path
           d="m 566.913,487.174 h 2.305 v -10.222 h -2.305 z"
           style="fill:#425917;fill-opacity:1;fill-rule:evenodd;stroke:none"
           id="path70065" /><path
           d="m 569.218,455.772 v -1.747 l -2.305,-0.014 v 1.775 z m 0,8.822 v -1.747 l -2.305,-0.014 v 1.775 z m 0,4.411 v -1.748 l -2.305,-0.013 v 1.775 z m 0,4.411 v -1.748 l -2.305,-0.014 v 1.775 z m 0,4.41 v -1.747 l -2.305,-0.014 v 1.774 z m 0,4.409 v -1.746 l -2.305,-0.014 v 1.774 z m -2.305,-23.813 2.305,0.014 v 1.747 l -2.305,0.014 z"
           style="fill:#425917;fill-opacity:1;fill-rule:evenodd;stroke:none"
           id="path70067" /><path
           d="m 569.218,482.235 v -1.746 l -2.305,-0.014 v 1.774 z m 0,-5.283 h -2.305 v 0.887 l 2.305,-0.013 z"
           style="fill:#354a0c;fill-opacity:1;fill-rule:evenodd;stroke:none"
           id="path70069" /><path
           d="m 477.412,455.774 v -1.75 l 2.304,-0.013 v 1.777 z m 0,8.822 v -1.75 l 2.304,-0.013 v 1.776 z m 0,4.41 v -1.749 l 2.304,-0.014 v 1.777 z m 0,4.411 v -1.75 l 2.304,-0.014 v 1.777 z m 0,4.411 v -1.75 l 2.304,-0.014 v 1.778 z m 0,4.409 v -1.749 l 2.304,-0.014 v 1.776 z m 2.304,-23.816 -2.304,0.014 v 1.75 l 2.304,0.014 z"
           style="fill:#5b7824;fill-opacity:1;fill-rule:evenodd;stroke:none"
           id="path70071" /><path
           d="m 477.412,451.472 h 2.304 v 35.704 h -2.304 z"
           style="fill:#5c7d1b;fill-opacity:1;fill-rule:evenodd;stroke:none"
           id="path70073" /><path
           d="m 477.412,455.774 v -1.75 l 2.304,-0.013 v 1.777 z m 0,8.822 v -1.75 l 2.304,-0.013 v 1.776 z m 0,4.41 v -1.749 l 2.304,-0.014 v 1.777 z m 0,4.411 v -1.75 l 2.304,-0.014 v 1.777 z m 0,4.411 v -1.75 l 2.304,-0.014 v 1.778 z m 0,4.409 v -1.749 l 2.304,-0.014 v 1.776 z m 2.304,-23.816 -2.304,0.014 v 1.75 l 2.304,0.014 z"
           style="fill:#4e691b;fill-opacity:1;fill-rule:evenodd;stroke:none"
           id="path70075" /><path
           d="m 479.716,487.174 h -2.304 v -10.222 h 2.304 z"
           style="fill:#425917;fill-opacity:1;fill-rule:evenodd;stroke:none"
           id="path70077" /><path
           d="m 477.412,455.772 v -1.747 l 2.304,-0.014 v 1.775 z m 0,8.822 v -1.747 l 2.304,-0.014 v 1.775 z m 0,4.411 v -1.748 l 2.304,-0.013 v 1.775 z m 0,4.411 v -1.748 l 2.304,-0.014 v 1.775 z m 0,4.41 v -1.747 l 2.304,-0.014 v 1.774 z m 0,4.409 v -1.746 l 2.304,-0.014 v 1.774 z m 2.304,-23.813 -2.304,0.014 v 1.747 l 2.304,0.014 z"
           style="fill:#425917;fill-opacity:1;fill-rule:evenodd;stroke:none"
           id="path70079" /><path
           d="m 477.412,482.235 v -1.746 l 2.304,-0.014 v 1.774 z m 0,-5.283 h 2.304 v 0.887 l -2.304,-0.013 z"
           style="fill:#354a0c;fill-opacity:1;fill-rule:evenodd;stroke:none"
           id="path70081" /><path
           d="m 493.326,522.877 h 87.197 v 35.702 h -87.197 z"
           style="fill:#f0e8c9;fill-opacity:1;fill-rule:evenodd;stroke:none"
           id="path70083" /><path
           d="m 580.523,548.357 h -87.197 v 10.221 h 87.197 z"
           style="fill:#e6ddbb;fill-opacity:1;fill-rule:evenodd;stroke:none"
           id="path70085" /><path
           d="m 556.188,558.579 h 14.47 v -35.702 h -14.47 z m -52.547,0 h 14.472 v -35.702 h -14.472 z m 26.275,0 h 14.469 v -35.702 h -14.469 z"
           style="fill:#e04136;fill-opacity:1;fill-rule:evenodd;stroke:none"
           id="path70087" /><path
           d="m 556.188,558.579 h 14.47 v -10.221 h -14.47 z m -52.547,0 h 14.472 v -10.221 h -14.472 z m 40.744,-10.222 h -14.469 v 10.221 h 14.469 z"
           style="fill:#d1392e;fill-opacity:1;fill-rule:evenodd;stroke:none"
           id="path70089" /><path
           d="m 582.827,527.179 v -1.75 l -2.304,-0.014 v 1.777 z m 0,8.821 v -1.75 l -2.304,-0.013 v 1.777 z m 0,4.412 v -1.751 l -2.304,-0.013 v 1.777 z m 0,4.41 v -1.75 l -2.304,-0.014 v 1.777 z m 0,4.41 v -1.749 l -2.304,-0.014 v 1.777 z m 0,4.41 v -1.749 l -2.304,-0.014 v 1.777 z m -2.304,-23.816 2.304,0.014 v 1.749 l -2.304,0.014 z"
           style="fill:#5b7824;fill-opacity:1;fill-rule:evenodd;stroke:none"
           id="path70091" /><path
           d="m 580.523,522.877 h 2.304 v 35.702 h -2.304 z"
           style="fill:#5c7d1b;fill-opacity:1;fill-rule:evenodd;stroke:none"
           id="path70093" /><path
           d="m 582.827,527.179 v -1.75 l -2.304,-0.014 v 1.777 z m 0,8.821 v -1.75 l -2.304,-0.013 v 1.777 z m 0,4.412 v -1.751 l -2.304,-0.013 v 1.777 z m 0,4.41 v -1.75 l -2.304,-0.014 v 1.777 z m 0,4.41 v -1.749 l -2.304,-0.014 v 1.777 z m 0,4.41 v -1.749 l -2.304,-0.014 v 1.777 z m -2.304,-23.816 2.304,0.014 v 1.749 l -2.304,0.014 z"
           style="fill:#4e691b;fill-opacity:1;fill-rule:evenodd;stroke:none"
           id="path70095" /><path
           d="m 580.523,558.579 h 2.304 v -10.221 h -2.304 z"
           style="fill:#425917;fill-opacity:1;fill-rule:evenodd;stroke:none"
           id="path70097" /><path
           d="m 582.827,527.177 v -1.747 l -2.304,-0.014 v 1.774 z m 0,8.822 v -1.748 l -2.304,-0.013 v 1.774 z m 0,4.41 v -1.746 l -2.304,-0.014 v 1.774 z m 0,4.411 v -1.748 l -2.304,-0.012 v 1.773 z m 0,4.41 v -1.747 l -2.304,-0.013 v 1.774 z m 0,4.41 v -1.746 l -2.304,-0.014 v 1.774 z m -2.304,-23.813 2.304,0.014 v 1.747 l -2.304,0.014 z"
           style="fill:#425917;fill-opacity:1;fill-rule:evenodd;stroke:none"
           id="path70099" /><path
           d="m 582.827,553.64 v -1.746 l -2.304,-0.014 v 1.774 z m 0,-5.283 h -2.304 v 0.887 l 2.304,-0.014 z"
           style="fill:#354a0c;fill-opacity:1;fill-rule:evenodd;stroke:none"
           id="path70101" /><path
           d="m 491.021,527.179 v -1.75 l 2.305,-0.014 v 1.777 z m 0,8.821 v -1.75 l 2.305,-0.013 v 1.777 z m 0,4.412 v -1.751 l 2.305,-0.013 v 1.777 z m 0,4.41 v -1.75 l 2.305,-0.014 v 1.777 z m 0,4.41 v -1.749 l 2.305,-0.014 v 1.777 z m 0,4.41 v -1.749 l 2.305,-0.014 v 1.777 z m 2.305,-23.816 -2.305,0.014 v 1.749 l 2.305,0.014 z"
           style="fill:#5b7824;fill-opacity:1;fill-rule:evenodd;stroke:none"
           id="path70103" /><path
           d="m 491.021,522.877 h 2.305 v 35.702 h -2.305 z"
           style="fill:#5c7d1b;fill-opacity:1;fill-rule:evenodd;stroke:none"
           id="path70105" /><path
           d="m 491.021,527.179 v -1.75 l 2.305,-0.014 v 1.777 z m 0,8.821 v -1.75 l 2.305,-0.013 v 1.777 z m 0,4.412 v -1.751 l 2.305,-0.013 v 1.777 z m 0,4.41 v -1.75 l 2.305,-0.014 v 1.777 z m 0,4.41 v -1.749 l 2.305,-0.014 v 1.777 z m 0,4.41 v -1.749 l 2.305,-0.014 v 1.777 z m 2.305,-23.816 -2.305,0.014 v 1.749 l 2.305,0.014 z"
           style="fill:#4e691b;fill-opacity:1;fill-rule:evenodd;stroke:none"
           id="path70107" /><path
           d="m 493.326,558.579 h -2.305 v -10.221 h 2.305 z"
           style="fill:#425917;fill-opacity:1;fill-rule:evenodd;stroke:none"
           id="path70109" /><path
           d="m 491.021,527.177 v -1.747 l 2.305,-0.014 v 1.774 z m 0,8.822 v -1.748 l 2.305,-0.013 v 1.774 z m 0,4.41 v -1.746 l 2.305,-0.014 v 1.774 z m 0,4.411 v -1.748 l 2.305,-0.012 v 1.773 z m 0,4.41 v -1.747 l 2.305,-0.013 v 1.774 z m 0,4.41 v -1.746 l 2.305,-0.014 v 1.774 z m 2.305,-23.813 -2.305,0.014 v 1.747 l 2.305,0.014 z"
           style="fill:#425917;fill-opacity:1;fill-rule:evenodd;stroke:none"
           id="path70111" /><path
           d="m 491.021,553.64 v -1.746 l 2.305,-0.014 v 1.774 z m 0,-5.283 h 2.305 v 0.887 l -2.305,-0.014 z"
           style="fill:#354a0c;fill-opacity:1;fill-rule:evenodd;stroke:none"
           id="path70113" /><path
           d="m 471.461,265.141 h 35.702 v 218.347 h -35.702 z"
           style="fill:#89b531;fill-opacity:1;fill-rule:evenodd;stroke:none"
           id="path70115" /><path
           d="M 83.961,265.141 H 473.745 V 483.488 H 83.961 Z"
           style="fill:#99cc33;fill-opacity:1;fill-rule:evenodd;stroke:none"
           id="path70117" /><path
           d="m 229.129,483.488 h 6.126 V 265.141 h -6.126 z"
           style="fill:#8bbd28;fill-opacity:1;fill-rule:evenodd;stroke:none"
           id="path70119" /><path
           d="m 322.452,483.488 h 6.125 V 265.141 h -6.125 z"
           style="fill:#8bbd28;fill-opacity:1;fill-rule:evenodd;stroke:none"
           id="path70121" /><path
           d="m 122.276,463.482 h 313.155 c 0,-16.456 10.263,-29.796 22.923,-29.796 V 314.943 c -12.66,0 -22.923,-13.339 -22.923,-29.796 H 122.276 c 0,16.457 -10.263,29.796 -22.924,29.796 v 118.743 c 12.661,0 22.924,13.34 22.924,29.796"
           style="fill:#d6fa8e;fill-opacity:1;fill-rule:evenodd;stroke:none"
           id="path70123" /><path
           d="m 229.129,463.482 h 6.126 V 285.147 h -6.126 z"
           style="fill:#c3e879;fill-opacity:1;fill-rule:evenodd;stroke:none"
           id="path70125" /><path
           d="m 322.452,463.482 h 6.125 V 285.147 h -6.125 z"
           style="fill:#c3e879;fill-opacity:1;fill-rule:evenodd;stroke:none"
           id="path70127" /><path
           d="m 278.854,440.164 c 36.713,0 66.477,-29.482 66.477,-65.85 0,-36.367 -29.764,-65.849 -66.477,-65.849 -36.716,0 -66.478,29.482 -66.478,65.849 0,36.368 29.762,65.85 66.478,65.85 m 93.13,-51.25 h 46.456 c 6.177,0 11.233,-6.569 11.233,-14.6 0,-8.03 -5.056,-14.6 -11.233,-14.6 h -46.456 c -6.177,0 -11.232,6.57 -11.232,14.6 0,8.031 5.055,14.6 11.232,14.6 m -232.272,0 h 46.455 c 6.177,0 11.233,-6.569 11.233,-14.6 0,-8.03 -5.056,-14.6 -11.233,-14.6 h -46.455 c -6.178,0 -11.233,6.57 -11.233,14.6 0,8.031 5.055,14.6 11.233,14.6"
           style="fill:#99cc33;fill-opacity:1;fill-rule:evenodd;stroke:none"
           id="path70129" /><path
           d="m 235.255,424.023 v -99.418 c -2.172,1.871 -4.216,3.88 -6.126,6.011 v 87.397 c 1.91,2.13 3.954,4.142 6.126,6.01"
           style="fill:#8bbd28;fill-opacity:1;fill-rule:evenodd;stroke:none"
           id="path70131" /><path
           d="m 328.578,418.013 v -87.399 c -1.911,-2.129 -3.955,-4.138 -6.126,-6.009 v 99.418 c 2.171,-1.868 4.215,-3.877 6.126,-6.01"
           style="fill:#8bbd28;fill-opacity:1;fill-rule:evenodd;stroke:none"
           id="path70133" /><path
           d="m 235.255,265.141 h 87.197 v 218.347 h -87.197 z"
           style="fill:#fff8de;fill-opacity:1;fill-rule:evenodd;stroke:none"
           id="path70135" /><path
           d="m 245.57,265.141 h 14.47 v 218.347 h -14.47 z"
           style="fill:#ff5e52;fill-opacity:1;fill-rule:evenodd;stroke:none"
           id="path70137" /><path
           d="m 271.844,483.488 h 14.469 V 265.141 h -14.469 z"
           style="fill:#ff5e52;fill-opacity:1;fill-rule:evenodd;stroke:none"
           id="path70139" /><path
           d="m 298.117,265.141 h 14.469 v 218.347 h -14.469 z"
           style="fill:#ff5e52;fill-opacity:1;fill-rule:evenodd;stroke:none"
           id="path70141" /><path
           d="m 503.736,483.488 0.573,-54.587 0.57,-54.587 -0.57,-54.585 -0.573,-54.588 -0.572,54.588 -0.57,54.585 0.57,54.587 z"
           style="fill:#63822b;fill-opacity:1;fill-rule:evenodd;stroke:none"
           id="path70143" /><path
           d="m 499.324,483.488 c 0.193,-18.196 0.383,-36.391 0.573,-54.587 0.19,-18.195 0.381,-36.392 0.572,-54.587 -0.191,-18.195 -0.382,-36.391 -0.572,-54.585 -0.19,-18.197 -0.38,-36.393 -0.573,-54.588 -0.19,18.195 -0.38,36.391 -0.57,54.588 -0.191,18.194 -0.38,36.39 -0.571,54.585 0.191,18.195 0.38,36.392 0.571,54.587 0.19,18.196 0.38,36.391 0.57,54.587"
           style="fill:#63822b;fill-opacity:1;fill-rule:evenodd;stroke:none"
           id="path70145" /><path
           d="m 494.913,483.488 c 0.192,-18.196 0.383,-36.391 0.573,-54.587 0.192,-18.195 0.381,-36.392 0.572,-54.587 -0.191,-18.195 -0.38,-36.391 -0.572,-54.585 -0.19,-18.197 -0.381,-36.393 -0.573,-54.588 -0.189,18.195 -0.38,36.391 -0.57,54.588 -0.19,18.194 -0.38,36.39 -0.572,54.585 0.192,18.195 0.382,36.392 0.572,54.587 0.19,18.196 0.381,36.391 0.57,54.587"
           style="fill:#63822b;fill-opacity:1;fill-rule:evenodd;stroke:none"
           id="path70147" /><path
           d="m 490.504,483.488 c 0.192,-18.196 0.383,-36.391 0.572,-54.587 0.191,-18.195 0.382,-36.392 0.572,-54.587 -0.19,-18.195 -0.381,-36.391 -0.572,-54.585 -0.189,-18.197 -0.38,-36.393 -0.572,-54.588 -0.191,18.195 -0.381,36.391 -0.57,54.588 -0.191,18.194 -0.381,36.39 -0.573,54.585 0.192,18.195 0.382,36.392 0.573,54.587 0.189,18.196 0.379,36.391 0.57,54.587"
           style="fill:#63822b;fill-opacity:1;fill-rule:evenodd;stroke:none"
           id="path70149" /><path
           d="m 486.094,483.488 c 0.19,-18.196 0.38,-36.391 0.573,-54.587 0.189,-18.195 0.38,-36.392 0.57,-54.587 -0.19,-18.195 -0.381,-36.391 -0.57,-54.585 -0.193,-18.197 -0.383,-36.393 -0.573,-54.588 -0.191,18.195 -0.382,36.391 -0.572,54.588 -0.19,18.194 -0.38,36.39 -0.57,54.585 0.19,18.195 0.38,36.392 0.57,54.587 0.19,18.196 0.381,36.391 0.572,54.587"
           style="fill:#63822b;fill-opacity:1;fill-rule:evenodd;stroke:none"
           id="path70151" /><path
           d="m 481.683,483.488 c 0.19,-18.196 0.38,-36.391 0.573,-54.587 0.188,-18.195 0.38,-36.392 0.57,-54.587 -0.19,-18.195 -0.382,-36.391 -0.57,-54.585 -0.193,-18.197 -0.383,-36.393 -0.573,-54.588 -0.19,18.195 -0.38,36.391 -0.572,54.588 -0.19,18.194 -0.379,36.39 -0.57,54.585 0.191,18.195 0.38,36.392 0.57,54.587 0.192,18.196 0.382,36.391 0.572,54.587"
           style="fill:#63822b;fill-opacity:1;fill-rule:evenodd;stroke:none"
           id="path70153" /><path
           d="m 477.271,483.488 0.573,-54.587 0.572,-54.587 -0.572,-54.585 -0.573,-54.588 -0.57,54.588 -0.571,54.585 0.571,54.587 z"
           style="fill:#63822b;fill-opacity:1;fill-rule:evenodd;stroke:none"
           id="path70155" /></g></g></g></svg>
